<svg width="209" height="74" viewBox="0 0 209 74" fill="none" xmlns="http://www.w3.org/2000/svg">
<path d="M46.5346 29.6793V31.6787H39.758C39.4412 31.6761 39.138 31.5513 38.9131 31.331C38.8229 31.2373 38.746 31.132 38.6842 31.018L36.9063 27.6451L36.0437 25.9761L34.6003 23.2464L32.4703 29.5055L31.1853 33.3304L28.2807 41.8496L26.9957 45.6572L26.714 46.4743C26.6314 46.7109 26.4779 46.917 26.2739 47.0655C26.0742 47.209 25.8344 47.2879 25.5874 47.2915H25.3586C25.1271 47.2585 24.9118 47.1552 24.7425 46.9959C24.5696 46.8298 24.4476 46.6189 24.3904 46.3874L24.2672 45.8484L23.1758 41.2759L22.7005 39.2069L21.4683 33.9911L20.993 31.9395L19.9016 27.3496L19.4087 25.2806L18.2821 20.4646L17.8068 18.4131L17.7012 18.0306L17.3667 18.8477L15.4832 23.2464L12.1914 30.9311C12.1123 31.1557 11.9568 31.3462 11.7513 31.4701C11.5565 31.6082 11.3221 31.6813 11.0823 31.6787H4.96387V29.6793H10.5719L11.7161 26.9671L13.5644 22.5858L16.821 15.0054C16.9071 14.7654 17.0752 14.5625 17.2963 14.4316C17.5095 14.2923 17.7628 14.2252 18.018 14.2404C18.278 14.2649 18.5239 14.3682 18.7222 14.536C18.9049 14.7113 19.0331 14.9344 19.0918 15.1792L19.4791 16.7614L19.9544 18.813L21.081 23.6115L21.5739 25.6805L22.6653 30.2531L23.1406 32.322L24.3728 37.5205L24.8481 39.5894L25.693 43.1884L27.9815 36.4947L29.2665 32.6697L32.5759 22.9856L33.2976 20.8298C33.3719 20.603 33.5129 20.4033 33.7025 20.256C33.8899 20.112 34.1169 20.0271 34.3538 20.0126C34.5155 20.0012 34.6777 20.0249 34.8291 20.0821C34.9846 20.1354 35.1281 20.2181 35.2516 20.3256C35.368 20.4175 35.4589 20.5372 35.5156 20.6733L37.5224 24.4982L38.4202 26.1673L40.2509 29.6793H46.5346Z" fill="url(#paint0_linear_1_9387)"/>
<path d="M55.1862 57.9924L53.5139 59.6441L54.0596 60.1831C54.7445 59.7785 55.3821 59.3004 55.9607 58.7574L55.1862 57.9924ZM58.7596 54.4631L57.0873 56.1147L57.6858 56.7233C58.1443 56.0376 58.5222 55.3027 58.8124 54.5326L58.7596 54.4631ZM48.3385 3H11.1605C8.20195 3.0046 5.36595 4.16741 3.27396 6.23359C1.18198 8.29978 0.00465541 11.1008 0 14.0228V50.7424C0.00465541 53.6644 1.18198 56.4655 3.27396 58.5317C5.36595 60.5978 8.20195 61.7606 11.1605 61.7652H41.5789C41.3464 61.7111 41.1328 61.5964 40.9603 61.4332C40.7879 61.2699 40.6628 61.0641 40.5981 60.8369C40.5335 60.6098 40.5315 60.3697 40.5925 60.1416C40.6536 59.9135 40.7753 59.7057 40.9451 59.5398L41.9485 58.5488C42.071 58.4216 42.2185 58.3206 42.382 58.2518C42.5454 58.183 42.7214 58.148 42.8991 58.1489C43.1635 58.1506 43.4215 58.2296 43.6405 58.376C43.8595 58.5223 44.0297 58.7295 44.1295 58.9714C44.2294 59.2133 44.2544 59.4789 44.2015 59.7348C44.1485 59.9907 44.02 60.2253 43.8321 60.4091L42.8287 61.4001C42.6484 61.586 42.4151 61.7134 42.1598 61.7652H48.3385C48.6977 61.768 49.0566 61.7448 49.4123 61.6957C49.1398 61.1668 48.7409 60.7115 48.2502 60.3692C47.7594 60.0268 47.1916 59.8078 46.5958 59.7311C46.6329 59.202 46.553 58.6714 46.3615 58.176C46.17 57.6805 45.8715 57.2323 45.4868 56.8623H11.1605C9.51708 56.8623 7.94102 56.2176 6.77898 55.0699C5.61694 53.9221 4.96411 52.3655 4.96411 50.7424V14.0228C4.96411 12.3997 5.61694 10.8431 6.77898 9.69539C7.94102 8.54768 9.51708 7.9029 11.1605 7.9029H48.3385C49.9804 7.90749 51.5538 8.55374 52.7148 9.70045C53.8759 10.8472 54.5302 12.4011 54.5348 14.0228V46.3263L56.4536 44.4312C57.3285 43.6111 58.357 42.9674 59.4813 42.5361V14.0228C59.4814 11.1024 58.3079 8.30134 56.2188 6.23465C54.1296 4.16797 51.2954 3.00461 48.3385 3ZM58.8828 47.526L58.0379 48.3605C57.5863 48.8045 57.003 49.0945 56.3729 49.1883C55.7428 49.2821 55.0989 49.1748 54.5348 48.8821V50.7424C54.5348 50.951 54.5172 51.1423 54.4996 51.3509C55.216 51.551 55.967 51.6002 56.7039 51.4954C57.4407 51.3905 58.1471 51.134 58.7772 50.7424L59.4637 51.4205C59.4813 51.1945 59.4813 50.9684 59.4813 50.7424V48.1171L58.8828 47.526Z" fill="url(#paint1_linear_1_9387)"/>
<path d="M69.7435 42.7801C68.7393 41.7916 67.5447 41.0117 66.2303 40.4867C64.9159 39.9616 63.5083 39.702 62.0906 39.723C60.6729 39.7441 59.2739 40.0455 57.9761 40.6093C56.6783 41.1732 55.508 41.9882 54.5343 43.0061L54.3935 43.1626C50.3271 38.7465 43.3034 38.5379 39.0434 42.7801C37.1746 44.6235 36.0715 47.0907 35.951 49.6967C35.8304 52.3026 36.7012 54.8589 38.3921 56.8629C38.6739 57.2081 38.9798 57.5334 39.3075 57.8365C38.81 58.3166 38.4589 58.925 38.2943 59.5925C38.1297 60.26 38.1582 60.9597 38.3765 61.6119C38.5948 62.2642 38.9942 62.8428 39.5291 63.2819C40.0641 63.721 40.7131 64.0029 41.4023 64.0955C41.2087 66.1471 42.9866 68.0422 45.0814 68.0074C45.2046 70.2676 47.5106 71.9019 49.7286 71.2934C50.4504 73.9883 53.9182 74.9271 55.925 72.9277C57.0516 71.815 57.9493 71.1196 58.0197 69.4157C59.8857 69.3809 61.5052 67.764 61.5404 65.9037C63.4239 65.8689 65.0786 64.252 65.0962 62.3917C67.0678 62.3569 68.7577 60.6009 68.6697 58.6189L69.7435 57.5583C70.7261 56.588 71.5055 55.4361 72.0372 54.1682C72.569 52.9004 72.8427 51.5415 72.8427 50.1692C72.8427 48.7969 72.569 47.438 72.0372 46.1702C71.5055 44.9024 70.7261 43.7504 69.7435 42.7801ZM41.5783 61.7658C41.3458 61.7116 41.1323 61.597 40.9598 61.4337C40.7873 61.2705 40.6623 61.0646 40.5976 60.8375C40.5329 60.6104 40.531 60.3703 40.592 60.1422C40.653 59.9141 40.7748 59.7063 40.9446 59.5404L41.948 58.5494C42.0704 58.4222 42.2179 58.3211 42.3814 58.2524C42.5449 58.1836 42.7209 58.1486 42.8986 58.1495C43.163 58.1511 43.421 58.2301 43.64 58.3765C43.859 58.5229 44.0292 58.7301 44.129 58.972C44.2288 59.2138 44.2539 59.4795 44.2009 59.7354C44.148 59.9912 44.0194 60.2259 43.8315 60.4097L42.8281 61.4007C42.6478 61.5866 42.4145 61.7139 42.1592 61.7658C41.9691 61.8176 41.7684 61.8176 41.5783 61.7658ZM47.0529 64.2868L46.1552 65.1561C46.0243 65.3138 45.8608 65.442 45.6756 65.532C45.4903 65.6219 45.2877 65.6716 45.0814 65.6777C44.7249 65.6731 44.3847 65.5301 44.1343 65.2795C43.8839 65.0289 43.7435 64.691 43.7435 64.339C43.745 64.1664 43.7816 63.9959 43.8511 63.8376C43.9207 63.6793 44.0218 63.5364 44.1484 63.4175L45.1518 62.4091C45.4077 62.1665 45.7477 62.0297 46.1023 62.0266C46.3683 62.0248 46.6287 62.1013 46.8504 62.2464C47.0721 62.3914 47.245 62.5985 47.347 62.841C47.4491 63.0836 47.4756 63.3507 47.4232 63.6082C47.3708 63.8657 47.2419 64.102 47.0529 64.2868ZM50.732 67.6945L49.7286 68.6855C49.4765 68.9345 49.1346 69.0744 48.778 69.0744C48.4215 69.0744 48.0796 68.9345 47.8275 68.6855C47.5754 68.4365 47.4337 68.0988 47.4337 67.7466C47.4337 67.3945 47.5754 67.0568 47.8275 66.8078L48.7252 65.9385C48.961 65.6756 49.2928 65.5161 49.6477 65.4949C50.0026 65.4737 50.3515 65.5926 50.6176 65.8255C50.8837 66.0583 51.0453 66.3861 51.0667 66.7366C51.0882 67.0871 50.9678 67.4317 50.732 67.6945ZM55.256 70.285L54.2527 71.276C53.9991 71.5224 53.6577 71.6604 53.3021 71.6604C52.9464 71.6604 52.605 71.5224 52.3515 71.276C52.2259 71.1532 52.1262 71.0069 52.0581 70.8458C51.9901 70.6846 51.9551 70.5118 51.9551 70.3372C51.9551 70.1626 51.9901 69.9897 52.0581 69.8286C52.1262 69.6674 52.2259 69.5212 52.3515 69.3983L53.3725 68.4073C53.4954 68.2838 53.6419 68.1857 53.8036 68.1187C53.9653 68.0517 54.1389 68.0172 54.3143 68.0172C54.4896 68.0172 54.6632 68.0517 54.8249 68.1187C54.9866 68.1857 55.1332 68.2838 55.256 68.4073C55.5013 68.6598 55.6383 68.9962 55.6383 69.3462C55.6383 69.6961 55.5013 70.0325 55.256 70.285ZM65.9236 59.6621C65.6679 59.9043 65.3273 60.0396 64.973 60.0396C64.6187 60.0396 64.2781 59.9043 64.0225 59.6621L58.8119 54.5332L58.7591 54.481L57.0868 56.1327L62.3501 61.3311C62.5999 61.5801 62.7393 61.9169 62.7377 62.2675C62.736 62.618 62.5934 62.9535 62.3413 63.2002C62.0892 63.4469 61.7482 63.5845 61.3933 63.5829C61.0385 63.5813 60.6988 63.4405 60.449 63.1915L55.9602 58.7754L55.1856 58.0104L53.5133 59.6621L54.059 60.201L58.7767 64.8432C58.9023 64.966 59.002 65.1122 59.07 65.2734C59.1381 65.4345 59.1731 65.6074 59.1731 65.782C59.1731 65.9566 59.1381 66.1295 59.07 66.2906C59.002 66.4518 58.9023 66.598 58.7767 66.7209C58.6538 66.8444 58.5072 66.9425 58.3455 67.0095C58.1838 67.0765 58.0103 67.111 57.8349 67.111C57.6596 67.111 57.486 67.0765 57.3243 67.0095C57.1626 66.9425 57.016 66.8444 56.8931 66.7209C56.1962 66.0631 55.2695 65.6957 54.3055 65.6951C53.9908 65.7002 53.6777 65.741 53.3725 65.8168C52.9852 64.2694 51.4009 63.0872 49.799 63.1045C49.7407 62.2654 49.3895 61.4723 48.8052 60.8604C48.221 60.2485 47.4399 59.8557 46.5952 59.749C46.6414 59.0902 46.5067 58.4313 46.2053 57.8418C45.9038 57.2524 45.4469 56.7542 44.8826 56.3999C44.3184 56.0456 43.6678 55.8483 42.9994 55.8288C42.3311 55.8093 41.6698 55.9683 41.0854 56.2892C37.5648 53.1944 37.3359 47.7525 40.7158 44.4492C44.0956 41.1458 49.5702 41.3371 52.7212 44.8317L49.799 47.7178L52.1403 50.0301C52.7889 50.6796 53.6044 51.1424 54.4991 51.3689C55.2155 51.5689 55.9664 51.6181 56.7033 51.5133C57.4402 51.4085 58.1466 51.152 58.7767 50.7604L59.4632 51.4384L65.9236 57.8018C66.1678 58.0514 66.3042 58.3849 66.3042 58.7319C66.3042 59.079 66.1678 59.4125 65.9236 59.6621ZM68.0712 55.9067L67.7191 56.2718L67.5959 56.1501L59.4808 48.1177L58.8823 47.5265L58.0373 48.3611C57.5857 48.805 57.0024 49.095 56.3724 49.1888C55.7423 49.2826 55.0984 49.1754 54.5343 48.8826C54.2718 48.7404 54.0292 48.5651 53.8126 48.3611L53.1436 47.7004L56.4531 44.4318C57.328 43.6117 58.3564 42.968 59.4808 42.5367C66.8918 39.7201 74.5668 48.9522 68.0712 55.9067Z" fill="#772377"/>
<path d="M11.2488 52.9855C12.8529 52.9855 14.1533 51.7011 14.1533 50.1168C14.1533 48.5324 12.8529 47.248 11.2488 47.248C9.64464 47.248 8.34424 48.5324 8.34424 50.1168C8.34424 51.7011 9.64464 52.9855 11.2488 52.9855Z" fill="#5B1A5B"/>
<circle cx="47.5" cy="30.5" r="3.5" fill="#551855"/>
<path d="M81.1691 19.7012C80.8739 19.3658 80.7264 18.9364 80.7264 18.4132C81.1691 18.4132 81.4777 18.3394 81.6521 18.1918C81.8399 18.0443 81.9338 17.7826 81.9338 17.407V7.94846C81.9338 7.5728 81.8399 7.31118 81.6521 7.1636C81.4777 7.0026 81.1691 6.92211 80.7264 6.92211C80.7264 6.41229 80.8739 5.98967 81.1691 5.65426H86.0795C86.2136 5.81526 86.321 6.00979 86.4015 6.23787C86.482 6.46595 86.5222 6.69403 86.5222 6.92211C86.0795 6.92211 85.7642 7.0026 85.5764 7.1636C85.402 7.31118 85.3148 7.5728 85.3148 7.94846V11.7117H89.7019V7.94846C89.7019 7.5728 89.608 7.31118 89.4202 7.1636C89.2323 7.0026 88.9237 6.92211 88.4944 6.92211C88.4944 6.41229 88.642 5.98967 88.9372 5.65426H93.8677C94.1628 5.98967 94.3104 6.41229 94.3104 6.92211C93.8811 6.92211 93.5658 7.0026 93.3646 7.1636C93.1767 7.31118 93.0828 7.5728 93.0828 7.94846V17.407C93.0828 17.7826 93.1767 18.0443 93.3646 18.1918C93.5658 18.3394 93.8811 18.4132 94.3104 18.4132C94.3104 18.9364 94.1628 19.3658 93.8677 19.7012H88.9372C88.642 19.3658 88.4944 18.9364 88.4944 18.4132C88.9237 18.4132 89.2323 18.3394 89.4202 18.1918C89.608 18.0443 89.7019 17.7826 89.7019 17.407V13.4022H85.3148V17.407C85.3148 17.7826 85.402 18.0443 85.5764 18.1918C85.7642 18.3394 86.0795 18.4132 86.5222 18.4132C86.5222 18.6547 86.482 18.8895 86.4015 19.1176C86.321 19.3456 86.2136 19.5402 86.0795 19.7012H81.1691ZM100.707 19.8823C99.2042 19.8823 98.0035 19.406 97.1046 18.4535C96.2191 17.5009 95.7764 16.1727 95.7764 14.4688C95.7764 13.3016 95.9977 12.2954 96.4405 11.4501C96.8832 10.5915 97.4802 9.93407 98.2315 9.47792C98.9963 9.02176 99.8616 8.79369 100.828 8.79369C102.035 8.79369 103.001 9.14922 103.726 9.86029C104.463 10.5579 104.832 11.544 104.832 12.8186C104.832 13.3284 104.745 13.7779 104.571 14.1669C104.41 14.5426 104.068 14.7304 103.544 14.7304H99.1975C99.2378 15.7903 99.4793 16.5416 99.922 16.9844C100.378 17.4271 100.968 17.6485 101.693 17.6485C102.149 17.6485 102.572 17.5814 102.961 17.4472C103.35 17.2996 103.712 17.0984 104.048 16.8435C104.168 16.9508 104.262 17.1185 104.329 17.3466C104.41 17.5613 104.45 17.7424 104.45 17.89C104.45 18.1046 104.296 18.373 103.987 18.6949C103.692 19.0035 103.263 19.2786 102.699 19.5201C102.149 19.7615 101.485 19.8823 100.707 19.8823ZM99.1975 13.201H101.23C101.458 13.201 101.599 13.1137 101.653 12.9393C101.72 12.7649 101.753 12.5503 101.753 12.2954C101.753 11.4367 101.646 10.8732 101.431 10.6049C101.23 10.3231 100.989 10.1823 100.707 10.1823C100.479 10.1823 100.251 10.2695 100.023 10.4439C99.7945 10.6183 99.6067 10.9269 99.4591 11.3696C99.3116 11.7989 99.2244 12.4094 99.1975 13.201ZM109.682 19.842C108.676 19.842 107.858 19.567 107.227 19.0169C106.61 18.4535 106.301 17.7357 106.301 16.8636C106.301 15.9916 106.583 15.2872 107.147 14.7505C107.724 14.2139 108.609 13.9456 109.803 13.9456C110.192 13.9456 110.601 13.9858 111.031 14.0663C111.46 14.1334 111.809 14.2407 112.077 14.3883V11.7117C112.077 11.1483 111.93 10.7592 111.634 10.5445C111.353 10.3164 111.004 10.2024 110.588 10.2024C110.145 10.2024 109.783 10.3097 109.501 10.5244C109.77 10.6183 109.964 10.7659 110.085 10.9671C110.206 11.155 110.266 11.3629 110.266 11.591C110.266 12.0337 110.105 12.3893 109.783 12.6576C109.474 12.9125 109.092 13.04 108.636 13.04C108.126 13.04 107.717 12.8924 107.408 12.5972C107.1 12.2886 106.945 11.9063 106.945 11.4501C106.945 10.994 107.1 10.5646 107.408 10.1622C107.717 9.74625 108.193 9.40413 108.837 9.1358C109.495 8.86748 110.34 8.73331 111.373 8.73331C114.07 8.73331 115.418 9.79991 115.418 11.9331V17.2661C115.418 17.9101 115.726 18.2992 116.344 18.4333V19.0773C116.169 19.3322 115.874 19.5268 115.458 19.6609C115.042 19.7817 114.64 19.842 114.251 19.842C113.338 19.842 112.694 19.5268 112.319 18.8962C112.05 19.1377 111.695 19.3591 111.252 19.5603C110.809 19.7481 110.286 19.842 109.682 19.842ZM110.99 18.212C111.178 18.212 111.373 18.1851 111.574 18.1315C111.775 18.0644 111.943 17.9839 112.077 17.89V15.9379C111.943 15.844 111.769 15.7635 111.554 15.6964C111.353 15.6293 111.151 15.5958 110.95 15.5958C110.601 15.5958 110.3 15.7098 110.045 15.9379C109.79 16.1525 109.662 16.4947 109.662 16.9642C109.662 17.3265 109.783 17.6283 110.025 17.8698C110.266 18.0979 110.588 18.212 110.99 18.212ZM118.239 19.7012C118.092 19.5402 117.978 19.3725 117.897 19.1981C117.817 19.0236 117.777 18.8291 117.777 18.6144C118.166 18.6144 118.447 18.534 118.622 18.373C118.796 18.1985 118.883 17.9101 118.883 17.5076V6.82148C118.883 6.51291 118.796 6.27141 118.622 6.097C118.447 5.90917 118.078 5.81526 117.515 5.81526V5.01028C117.85 4.82245 118.239 4.66145 118.682 4.52729C119.138 4.37971 119.588 4.26567 120.03 4.18517C120.473 4.09126 120.842 4.0443 121.137 4.0443C121.446 4.0443 121.667 4.11138 121.801 4.24555C121.949 4.37971 122.023 4.6145 122.023 4.9499V17.5076C122.023 17.9235 122.103 18.212 122.264 18.373C122.439 18.534 122.727 18.6144 123.13 18.6144C123.13 18.8291 123.083 19.0236 122.989 19.1981C122.908 19.3725 122.794 19.5402 122.647 19.7012H118.239ZM128.576 19.842C128.012 19.842 127.496 19.7414 127.026 19.5402C126.557 19.3255 126.174 18.9633 125.879 18.4535C125.597 17.9436 125.456 17.246 125.456 16.3605V10.8263H124.189V9.59867C124.551 9.545 124.893 9.31692 125.215 8.91443C125.537 8.51194 125.812 8.01554 126.04 7.42522C126.281 6.8349 126.436 6.24458 126.503 5.65426C126.744 5.61401 126.966 5.59389 127.167 5.59389C127.704 5.59389 128.073 5.74818 128.274 6.05675C128.488 6.36533 128.596 6.65378 128.596 6.92211V9.03518H130.93C130.93 9.35717 130.91 9.67916 130.87 10.0012C130.843 10.3097 130.756 10.5848 130.608 10.8263H128.636V16.5014C128.636 16.9307 128.723 17.2191 128.898 17.3667C129.072 17.5009 129.293 17.568 129.562 17.568C129.83 17.568 130.098 17.5009 130.367 17.3667C130.649 17.2191 130.87 17.0514 131.031 16.8636C131.178 16.9844 131.279 17.1655 131.333 17.407C131.386 17.6351 131.413 17.8095 131.413 17.9302C131.413 18.2254 131.313 18.5205 131.111 18.8157C130.91 19.1109 130.595 19.3591 130.166 19.5603C129.75 19.7481 129.22 19.842 128.576 19.842ZM141.696 19.8219C141.039 19.8219 140.535 19.7213 140.187 19.5201C139.838 19.3188 139.663 18.9968 139.663 18.5541V12.074C139.663 11.6447 139.543 11.316 139.301 11.0879C139.06 10.8464 138.744 10.7256 138.355 10.7256C138.1 10.7256 137.825 10.8128 137.53 10.9873C137.248 11.1483 137.034 11.3696 136.886 11.6514V17.5277C136.886 17.9168 136.967 18.1985 137.128 18.373C137.302 18.534 137.591 18.6144 137.993 18.6144C137.993 19.0304 137.839 19.3926 137.53 19.7012H133.083C132.774 19.3926 132.62 19.0304 132.62 18.6144C133.022 18.6144 133.304 18.534 133.465 18.373C133.639 18.1985 133.727 17.9168 133.727 17.5277V6.62024C133.727 6.31166 133.639 6.07017 133.465 5.89576C133.291 5.72134 132.928 5.63414 132.378 5.63414V4.80903C132.714 4.63462 133.103 4.47362 133.546 4.32604C134.002 4.17846 134.451 4.06443 134.894 3.98393C135.35 3.89001 135.726 3.84306 136.021 3.84306C136.329 3.84306 136.551 3.91685 136.685 4.06443C136.819 4.19859 136.886 4.43338 136.886 4.76878V8.73331L136.846 10.3433C137.195 9.90053 137.644 9.52488 138.194 9.2163C138.744 8.90772 139.368 8.75344 140.066 8.75344C141.971 8.75344 142.924 9.74625 142.924 11.7319V17.3667C142.924 18.051 143.246 18.4535 143.89 18.5742L143.91 19.1578C143.427 19.6005 142.689 19.8219 141.696 19.8219ZM152.342 19.7012C152.046 19.3658 151.899 18.9364 151.899 18.4132C152.623 18.4132 153.18 18.326 153.569 18.1516C153.972 17.9772 154.173 17.7021 154.173 17.3265V7.2441H153.73C153.381 7.2441 153.033 7.35143 152.684 7.56609C152.348 7.78075 152.053 8.17653 151.798 8.75344C151.557 9.31692 151.389 10.142 151.295 11.2288C151.134 11.2153 150.933 11.2019 150.691 11.1885C150.45 11.1751 150.215 11.155 149.987 11.1281C149.772 11.0879 149.605 11.0476 149.484 11.0074C149.484 10.7256 149.497 10.3299 149.524 9.82004C149.551 9.31021 149.591 8.76685 149.645 8.18995C149.699 7.61305 149.766 7.07639 149.846 6.57999C149.94 6.07017 150.047 5.68109 150.168 5.41277C150.41 5.41277 150.685 5.43289 150.993 5.47314C151.302 5.51339 151.577 5.57376 151.818 5.65426H159.667C159.922 5.57376 160.197 5.51339 160.492 5.47314C160.787 5.43289 161.062 5.41277 161.317 5.41277C161.438 5.68109 161.539 6.07017 161.619 6.57999C161.713 7.07639 161.787 7.61305 161.84 8.18995C161.894 8.76685 161.934 9.31021 161.961 9.82004C161.988 10.3299 162.001 10.7256 162.001 11.0074C161.827 11.0745 161.545 11.1281 161.156 11.1684C160.781 11.2086 160.459 11.2288 160.19 11.2288C160.11 10.142 159.976 9.31692 159.788 8.75344C159.6 8.17653 159.352 7.78075 159.043 7.56609C158.735 7.35143 158.339 7.2441 157.856 7.2441H157.514V17.3265C157.514 18.051 158.225 18.4132 159.647 18.4132C159.647 18.9364 159.493 19.3658 159.184 19.7012H152.342ZM163.727 19.7012C163.579 19.5536 163.465 19.3926 163.385 19.2182C163.304 19.0438 163.264 18.8425 163.264 18.6144C163.653 18.6144 163.928 18.534 164.089 18.373C164.264 18.1985 164.351 17.9101 164.351 17.5076V11.6916C164.351 11.3428 164.257 11.0946 164.069 10.947C163.881 10.786 163.532 10.7055 163.023 10.7055V9.79991C163.345 9.61208 163.727 9.45109 164.17 9.31692C164.612 9.16934 165.048 9.0553 165.478 8.97481C165.907 8.88089 166.242 8.83394 166.484 8.83394C166.793 8.83394 167.014 8.94127 167.148 9.15593C167.296 9.37059 167.369 9.83345 167.369 10.5445C167.517 10.2628 167.732 9.98774 168.013 9.71941C168.309 9.43767 168.637 9.20959 169 9.03518C169.362 8.86077 169.737 8.77356 170.127 8.77356C170.757 8.77356 171.207 8.93456 171.475 9.25655C171.743 9.57854 171.877 9.99445 171.877 10.5043C171.877 11.0812 171.73 11.5507 171.435 11.913C171.139 12.2752 170.73 12.4563 170.207 12.4563C169.751 12.4563 169.389 12.3289 169.12 12.074C168.852 11.8057 168.718 11.5038 168.718 11.1684C168.718 10.9537 168.738 10.786 168.778 10.6653C168.564 10.7189 168.356 10.7927 168.154 10.8866C167.953 10.9671 167.752 11.1013 167.551 11.2891V17.3265C167.551 17.6351 167.598 17.8833 167.691 18.0711C167.785 18.2589 167.966 18.3998 168.235 18.4937C168.517 18.5742 168.932 18.6144 169.483 18.6144C169.483 18.8425 169.456 19.0438 169.402 19.2182C169.348 19.3926 169.248 19.5536 169.1 19.7012H163.727ZM176.731 19.842C175.792 19.842 175.061 19.5536 174.538 18.9767C174.014 18.3998 173.753 17.6216 173.753 16.6422V11.108C173.753 10.8799 173.666 10.7189 173.491 10.625C173.317 10.5311 173.075 10.4841 172.767 10.4841V9.59867C172.941 9.45109 173.303 9.2968 173.853 9.1358C174.417 8.96139 175.048 8.87418 175.745 8.87418C176.268 8.87418 176.611 8.93456 176.772 9.0553C176.946 9.17605 177.033 9.47121 177.033 9.94078V16.7026C177.033 17.1051 177.1 17.4137 177.234 17.6283C177.369 17.843 177.603 17.9503 177.939 17.9503C178.221 17.9503 178.489 17.8631 178.744 17.6887C179.012 17.5143 179.233 17.3131 179.408 17.085V11.108C179.408 10.8799 179.307 10.7189 179.106 10.625C178.905 10.5311 178.63 10.4841 178.281 10.4841V9.59867C178.469 9.45109 178.838 9.2968 179.388 9.1358C179.938 8.96139 180.588 8.87418 181.34 8.87418C181.863 8.87418 182.219 8.93456 182.406 9.0553C182.594 9.17605 182.688 9.47121 182.688 9.94078V17.3466C182.688 17.6686 182.769 17.9369 182.93 18.1516C183.104 18.3662 183.346 18.487 183.654 18.5138V19.0773C183.439 19.3322 183.097 19.5268 182.628 19.6609C182.172 19.7817 181.729 19.842 181.3 19.842C180.857 19.842 180.468 19.728 180.132 19.4999C179.81 19.2584 179.596 18.9163 179.488 18.4736C178.831 19.3859 177.912 19.842 176.731 19.842ZM189.311 19.9024C188.828 19.9024 188.338 19.8488 187.842 19.7414C187.359 19.6341 186.909 19.4798 186.493 19.2786C186.091 19.0773 185.762 18.8291 185.507 18.534C185.252 18.2254 185.125 17.8765 185.125 17.4875C185.125 17.0179 185.259 16.6422 185.527 16.3605C185.796 16.0653 186.138 15.9178 186.554 15.9178C186.929 15.9178 187.245 16.0385 187.499 16.28C187.768 16.5215 187.902 16.8368 187.902 17.2259C187.902 17.4003 187.875 17.5546 187.821 17.6887C187.768 17.8095 187.687 17.9436 187.58 18.0912C187.701 18.212 187.915 18.2992 188.224 18.3528C188.533 18.4065 188.834 18.4333 189.13 18.4333C189.599 18.4333 189.961 18.3461 190.216 18.1717C190.471 17.9973 190.599 17.7826 190.599 17.5277C190.599 17.1252 190.384 16.7831 189.955 16.5014C189.525 16.2062 189.036 15.9111 188.486 15.6159C187.989 15.3476 187.493 15.0658 186.996 14.7707C186.513 14.4621 186.104 14.0797 185.769 13.6236C185.447 13.1674 185.286 12.5905 185.286 11.8929C185.286 11.0074 185.655 10.2762 186.393 9.69929C187.131 9.12239 188.177 8.83394 189.532 8.83394C190.471 8.83394 191.223 8.95468 191.786 9.19618C192.349 9.42425 192.759 9.71941 193.014 10.0817C193.269 10.4305 193.396 10.7994 193.396 11.1885C193.396 11.6044 193.262 11.9398 192.993 12.1947C192.739 12.4362 192.423 12.557 192.048 12.557C191.712 12.557 191.417 12.4563 191.162 12.2551C190.907 12.0404 190.78 11.7654 190.78 11.43C190.78 11.269 190.807 11.0946 190.86 10.9068C190.914 10.7189 190.988 10.5646 191.082 10.4439C190.934 10.3231 190.76 10.2427 190.558 10.2024C190.371 10.1487 190.142 10.1219 189.874 10.1219C189.431 10.1219 189.089 10.2292 188.848 10.4439C188.62 10.6451 188.506 10.8933 188.506 11.1885C188.506 11.6447 188.72 12.0203 189.15 12.3155C189.592 12.6106 190.082 12.8991 190.619 13.1808C191.115 13.4357 191.598 13.7108 192.068 14.0059C192.551 14.3011 192.953 14.67 193.275 15.1128C193.597 15.5555 193.758 16.1257 193.758 16.8234C193.758 17.5747 193.544 18.1784 193.114 18.6346C192.685 19.0773 192.128 19.3993 191.444 19.6005C190.773 19.8018 190.062 19.9024 189.311 19.9024ZM199.405 19.842C198.842 19.842 198.325 19.7414 197.856 19.5402C197.386 19.3255 197.004 18.9633 196.709 18.4535C196.427 17.9436 196.286 17.246 196.286 16.3605V10.8263H195.018V9.59867C195.38 9.545 195.723 9.31692 196.045 8.91443C196.367 8.51194 196.642 8.01554 196.87 7.42522C197.111 6.8349 197.265 6.24458 197.332 5.65426C197.574 5.61401 197.795 5.59389 197.997 5.59389C198.533 5.59389 198.902 5.74818 199.103 6.05675C199.318 6.36533 199.425 6.65378 199.425 6.92211V9.03518H201.76C201.76 9.35717 201.74 9.67916 201.7 10.0012C201.673 10.3097 201.585 10.5848 201.438 10.8263H199.466V16.5014C199.466 16.9307 199.553 17.2191 199.727 17.3667C199.902 17.5009 200.123 17.568 200.391 17.568C200.66 17.568 200.928 17.5009 201.196 17.3667C201.478 17.2191 201.7 17.0514 201.861 16.8636C202.008 16.9844 202.109 17.1655 202.162 17.407C202.216 17.6351 202.243 17.8095 202.243 17.9302C202.243 18.2254 202.142 18.5205 201.941 18.8157C201.74 19.1109 201.424 19.3591 200.995 19.5603C200.579 19.7481 200.049 19.842 199.405 19.842ZM83.2218 43.7012C82.9266 43.3658 82.7791 42.9364 82.7791 42.4132C83.5035 42.4132 84.0603 42.326 84.4494 42.1516C84.8519 41.9772 85.0531 41.7021 85.0531 41.3265V31.2441H84.6104C84.2616 31.2441 83.9127 31.3514 83.5639 31.5661C83.2285 31.7808 82.9334 32.1765 82.6784 32.7534C82.4369 33.3169 82.2692 34.142 82.1753 35.2288C82.0143 35.2153 81.8131 35.2019 81.5716 35.1885C81.3301 35.1751 81.0953 35.155 80.8672 35.1281C80.6526 35.0879 80.4849 35.0476 80.3641 35.0074C80.3641 34.7256 80.3775 34.3299 80.4044 33.82C80.4312 33.3102 80.4715 32.7669 80.5251 32.19C80.5788 31.613 80.6459 31.0764 80.7264 30.58C80.8203 30.0702 80.9276 29.6811 81.0484 29.4128C81.2898 29.4128 81.5649 29.4329 81.8735 29.4731C82.182 29.5134 82.4571 29.5738 82.6986 29.6543H90.5471C90.802 29.5738 91.0771 29.5134 91.3722 29.4731C91.6674 29.4329 91.9424 29.4128 92.1973 29.4128C92.3181 29.6811 92.4187 30.0702 92.4992 30.58C92.5931 31.0764 92.6669 31.613 92.7206 32.19C92.7742 32.7669 92.8145 33.3102 92.8413 33.82C92.8682 34.3299 92.8816 34.7256 92.8816 35.0074C92.7072 35.0745 92.4254 35.1281 92.0363 35.1684C91.6607 35.2086 91.3387 35.2288 91.0704 35.2288C90.9899 34.142 90.8557 33.3169 90.6679 32.7534C90.48 32.1765 90.2318 31.7808 89.9233 31.5661C89.6147 31.3514 89.2189 31.2441 88.7359 31.2441H88.3938V41.3265C88.3938 42.051 89.1049 42.4132 90.527 42.4132C90.527 42.9364 90.3727 43.3658 90.0641 43.7012H83.2218ZM98.5647 43.8823C97.0621 43.8823 95.8613 43.406 94.9624 42.4535C94.0769 41.5009 93.6342 40.1727 93.6342 38.4688C93.6342 37.3016 93.8556 36.2954 94.2983 35.4501C94.741 34.5915 95.3381 33.9341 96.0894 33.4779C96.8541 33.0218 97.7195 32.7937 98.6854 32.7937C99.8929 32.7937 100.859 33.1492 101.583 33.8603C102.321 34.5579 102.69 35.544 102.69 36.8186C102.69 37.3284 102.603 37.7779 102.429 38.1669C102.268 38.5426 101.925 38.7304 101.402 38.7304H97.0554C97.0956 39.7903 97.3371 40.5416 97.7798 40.9844C98.236 41.4271 98.8263 41.6485 99.5508 41.6485C100.007 41.6485 100.43 41.5814 100.819 41.4472C101.208 41.2996 101.57 41.0984 101.905 40.8435C102.026 40.9508 102.12 41.1185 102.187 41.3466C102.268 41.5613 102.308 41.7424 102.308 41.89C102.308 42.1046 102.154 42.373 101.845 42.6949C101.55 43.0035 101.121 43.2786 100.557 43.5201C100.007 43.7615 99.3428 43.8823 98.5647 43.8823ZM97.0554 37.201H99.0879C99.316 37.201 99.4569 37.1137 99.5105 36.9393C99.5776 36.7649 99.6112 36.5503 99.6112 36.2954C99.6112 35.4367 99.5038 34.8732 99.2892 34.6049C99.0879 34.3231 98.8464 34.1823 98.5647 34.1823C98.3366 34.1823 98.1085 34.2695 97.8805 34.4439C97.6524 34.6183 97.4646 34.9269 97.317 35.3696C97.1694 35.7989 97.0822 36.4094 97.0554 37.201ZM109.369 44.003C108.39 44.003 107.524 43.7817 106.773 43.3389C106.035 42.8962 105.452 42.2656 105.022 41.4472C104.606 40.6154 104.398 39.6226 104.398 38.4688C104.398 37.2747 104.627 36.2551 105.083 35.4099C105.539 34.5512 106.163 33.9005 106.954 33.4578C107.746 33.0016 108.638 32.7736 109.631 32.7736C110.664 32.7736 111.449 33.0218 111.985 33.5182C112.522 34.0012 112.79 34.5982 112.79 35.3092C112.79 35.9532 112.629 36.4496 112.307 36.7985C111.985 37.1473 111.569 37.3217 111.06 37.3217C110.644 37.3217 110.295 37.1674 110.013 36.8588C109.731 36.5503 109.591 36.1746 109.591 35.7319C109.591 35.4099 109.644 35.1483 109.752 34.947C109.872 34.7458 110.02 34.5781 110.194 34.4439C110.06 34.3634 109.946 34.3164 109.852 34.303C109.772 34.2762 109.691 34.2628 109.611 34.2628C109.356 34.2628 109.094 34.3634 108.826 34.5646C108.558 34.7659 108.329 35.1214 108.142 35.6312C107.967 36.1411 107.88 36.8521 107.88 37.7644C107.88 39.2402 108.095 40.28 108.524 40.8837C108.953 41.4741 109.557 41.7692 110.335 41.7692C110.697 41.7692 111.06 41.7156 111.422 41.6082C111.798 41.5009 112.113 41.3466 112.368 41.1454C112.475 41.2795 112.562 41.4472 112.629 41.6485C112.71 41.8363 112.75 42.004 112.75 42.1516C112.75 42.4333 112.596 42.7218 112.287 43.0169C111.992 43.2987 111.59 43.5335 111.08 43.7213C110.57 43.9091 110 44.003 109.369 44.003ZM123.115 43.8219C122.458 43.8219 121.955 43.7213 121.606 43.5201C121.257 43.3188 121.083 42.9968 121.083 42.5541V36.074C121.083 35.6447 120.962 35.316 120.721 35.0879C120.479 34.8464 120.164 34.7256 119.775 34.7256C119.52 34.7256 119.245 34.8128 118.95 34.9873C118.668 35.1483 118.453 35.3696 118.306 35.6514V41.5277C118.306 41.9168 118.386 42.1985 118.547 42.373C118.721 42.534 119.01 42.6144 119.412 42.6144C119.412 43.0304 119.258 43.3926 118.95 43.7012H114.502C114.193 43.3926 114.039 43.0304 114.039 42.6144C114.442 42.6144 114.723 42.534 114.884 42.373C115.059 42.1985 115.146 41.9168 115.146 41.5277V30.6202C115.146 30.3117 115.059 30.0702 114.884 29.8958C114.71 29.7213 114.348 29.6341 113.798 29.6341V28.809C114.133 28.6346 114.522 28.4736 114.965 28.326C115.421 28.1785 115.871 28.0644 116.313 27.9839C116.769 27.89 117.145 27.8431 117.44 27.8431C117.749 27.8431 117.97 27.9168 118.104 28.0644C118.239 28.1986 118.306 28.4334 118.306 28.7688V32.7333L118.265 34.3433C118.614 33.9005 119.064 33.5249 119.614 33.2163C120.164 32.9077 120.788 32.7534 121.485 32.7534C123.39 32.7534 124.343 33.7462 124.343 35.7319V41.3667C124.343 42.051 124.665 42.4535 125.309 42.5742L125.329 43.1578C124.846 43.6005 124.108 43.8219 123.115 43.8219ZM127.374 43.7012C127.226 43.5536 127.106 43.3926 127.012 43.2182C126.931 43.0438 126.891 42.8492 126.891 42.6346C127.293 42.6346 127.582 42.5474 127.756 42.373C127.931 42.1985 128.018 41.9168 128.018 41.5277V35.6514C128.018 35.3025 127.917 35.0476 127.716 34.8866C127.528 34.7256 127.179 34.6451 126.67 34.6451V33.7395C126.978 33.5651 127.367 33.4041 127.837 33.2565C128.32 33.109 128.783 32.9949 129.225 32.9144C129.681 32.8205 130.03 32.7736 130.272 32.7736C130.554 32.7736 130.782 32.8608 130.956 33.0352C131.144 33.2096 131.251 33.5853 131.278 34.1622C131.613 33.7462 132.036 33.4108 132.546 33.1559C133.069 32.901 133.673 32.7736 134.357 32.7736C135.296 32.7736 136.001 33.0151 136.47 33.498C136.953 33.9676 137.195 34.7726 137.195 35.913V41.407C137.195 42.0644 137.517 42.4535 138.161 42.5742L138.181 43.1578C138.047 43.292 137.832 43.4127 137.537 43.5201C137.242 43.614 136.92 43.6878 136.571 43.7414C136.235 43.7951 135.92 43.8219 135.625 43.8219C135.048 43.8219 134.619 43.7146 134.337 43.4999C134.069 43.2853 133.934 42.9431 133.934 42.4736V36.1947C133.934 35.6447 133.814 35.2623 133.572 35.0476C133.331 34.833 133.036 34.7256 132.687 34.7256C132.137 34.7256 131.674 34.947 131.298 35.3897V41.5277C131.298 41.9168 131.379 42.1985 131.54 42.373C131.714 42.5474 132.003 42.6346 132.405 42.6346C132.405 43.0371 132.251 43.3926 131.942 43.7012H127.374ZM144.627 43.9628C143.675 43.9628 142.829 43.7615 142.092 43.3591C141.354 42.9431 140.777 42.3394 140.361 41.5478C139.958 40.7429 139.757 39.7501 139.757 38.5694C139.757 37.3083 139.972 36.2484 140.401 35.3897C140.83 34.5311 141.427 33.8804 142.192 33.4377C142.957 32.9949 143.836 32.7736 144.828 32.7736C145.794 32.7736 146.64 32.9815 147.364 33.3974C148.102 33.8133 148.672 34.4305 149.075 35.2489C149.491 36.0539 149.699 37.0534 149.699 38.2474C149.699 39.4951 149.484 40.5483 149.055 41.407C148.625 42.2522 148.028 42.8895 147.264 43.3188C146.499 43.7481 145.62 43.9628 144.627 43.9628ZM144.788 42.5138C145.07 42.5138 145.311 42.4132 145.513 42.212C145.727 42.0107 145.888 41.6418 145.996 41.1051C146.116 40.555 146.177 39.7635 146.177 38.7304C146.177 37.4693 146.116 36.5167 145.996 35.8727C145.875 35.2153 145.7 34.7726 145.472 34.5445C145.244 34.3164 144.976 34.2024 144.667 34.2024C144.386 34.2024 144.137 34.303 143.923 34.5043C143.708 34.7055 143.54 35.0812 143.42 35.6312C143.312 36.1813 143.259 36.9796 143.259 38.0261C143.259 39.2738 143.319 40.2196 143.44 40.8636C143.574 41.5076 143.755 41.9436 143.983 42.1717C144.211 42.3998 144.48 42.5138 144.788 42.5138ZM151.652 43.7012C151.505 43.5402 151.391 43.3725 151.31 43.1981C151.23 43.0236 151.19 42.8291 151.19 42.6144C151.579 42.6144 151.86 42.534 152.035 42.373C152.209 42.1985 152.296 41.9101 152.296 41.5076V30.8215C152.296 30.5129 152.209 30.2714 152.035 30.097C151.86 29.9092 151.491 29.8153 150.928 29.8153V29.0103C151.263 28.8224 151.652 28.6615 152.095 28.5273C152.551 28.3797 153.001 28.2657 153.443 28.1852C153.886 28.0913 154.255 28.0443 154.55 28.0443C154.859 28.0443 155.08 28.1114 155.214 28.2455C155.362 28.3797 155.436 28.6145 155.436 28.9499V41.5076C155.436 41.9235 155.516 42.212 155.677 42.373C155.852 42.534 156.14 42.6144 156.543 42.6144C156.543 42.8291 156.496 43.0236 156.402 43.1981C156.321 43.3725 156.207 43.5402 156.06 43.7012H151.652ZM162.952 43.9628C162 43.9628 161.154 43.7615 160.417 43.3591C159.679 42.9431 159.102 42.3394 158.686 41.5478C158.283 40.7429 158.082 39.7501 158.082 38.5694C158.082 37.3083 158.297 36.2484 158.726 35.3897C159.155 34.5311 159.752 33.8804 160.517 33.4377C161.282 32.9949 162.161 32.7736 163.154 32.7736C164.12 32.7736 164.965 32.9815 165.689 33.3974C166.427 33.8133 166.997 34.4305 167.4 35.2489C167.816 36.0539 168.024 37.0534 168.024 38.2474C168.024 39.4951 167.809 40.5483 167.38 41.407C166.95 42.2522 166.353 42.8895 165.589 43.3188C164.824 43.7481 163.945 43.9628 162.952 43.9628ZM163.113 42.5138C163.395 42.5138 163.637 42.4132 163.838 42.212C164.052 42.0107 164.213 41.6418 164.321 41.1051C164.441 40.555 164.502 39.7635 164.502 38.7304C164.502 37.4693 164.441 36.5167 164.321 35.8727C164.2 35.2153 164.026 34.7726 163.798 34.5445C163.569 34.3164 163.301 34.2024 162.993 34.2024C162.711 34.2024 162.463 34.303 162.248 34.5043C162.033 34.7055 161.866 35.0812 161.745 35.6312C161.637 36.1813 161.584 36.9796 161.584 38.0261C161.584 39.2738 161.644 40.2196 161.765 40.8636C161.899 41.5076 162.08 41.9436 162.308 42.1717C162.536 42.3998 162.805 42.5138 163.113 42.5138ZM174.058 40.4008C173.615 40.4008 173.193 40.3538 172.79 40.2599V40.3203C172.79 40.6557 172.918 40.8904 173.173 41.0246C173.441 41.1588 173.904 41.2527 174.561 41.3064C176.265 41.4271 177.546 41.7357 178.405 42.2321C179.277 42.7285 179.713 43.4731 179.713 44.4659C179.713 44.9891 179.565 45.4788 179.27 45.935C178.975 46.3911 178.566 46.7869 178.043 47.1223C177.533 47.4577 176.949 47.7194 176.292 47.9072C175.634 48.095 174.95 48.1889 174.239 48.1889C172.576 48.1889 171.361 47.8871 170.597 47.2833C169.845 46.693 169.47 45.9484 169.47 45.0495C169.47 44.5531 169.631 44.1037 169.953 43.7012C170.288 43.2987 170.764 42.9901 171.381 42.7754C171.086 42.5608 170.898 42.3193 170.818 42.051C170.751 41.7826 170.717 41.4875 170.717 41.1655C170.717 40.9508 170.805 40.716 170.979 40.4611C171.153 40.2062 171.422 40.0117 171.784 39.8775C171.153 39.5421 170.657 39.0792 170.295 38.4889C169.946 37.8986 169.772 37.2613 169.772 36.5771C169.772 35.8929 169.939 35.2757 170.275 34.7256C170.61 34.1622 171.106 33.7127 171.764 33.3773C172.421 33.0419 173.24 32.8742 174.219 32.8742H174.239C174.36 32.8742 174.541 32.8809 174.783 32.8943C175.037 32.9077 175.272 32.9346 175.487 32.9748C176.413 32.9748 177.117 32.9681 177.6 32.9547C178.096 32.9278 178.472 32.901 178.727 32.8742C178.982 32.8474 179.23 32.8138 179.472 32.7736C179.619 32.7736 179.726 32.8742 179.794 33.0754C179.861 33.2633 179.894 33.4444 179.894 33.6188C179.894 33.8737 179.834 34.0884 179.713 34.2628C179.592 34.4372 179.391 34.5244 179.109 34.5244C178.989 34.5244 178.767 34.4573 178.445 34.3231C178.123 34.189 177.815 34.0682 177.519 33.9609C177.976 34.3231 178.318 34.7391 178.546 35.2086C178.787 35.6782 178.908 36.1209 178.908 36.5368C178.908 37.798 178.479 38.7572 177.62 39.4147C176.761 40.0721 175.574 40.4008 174.058 40.4008ZM174.4 39.0725C174.843 39.0725 175.151 38.8377 175.326 38.3682C175.514 37.8986 175.608 37.2077 175.608 36.2954C175.608 35.544 175.5 35.0074 175.286 34.6854C175.084 34.3634 174.789 34.2024 174.4 34.2024C173.957 34.2024 173.649 34.4372 173.474 34.9068C173.3 35.3629 173.213 35.9935 173.213 36.7985C173.213 37.5364 173.307 38.0998 173.495 38.4889C173.682 38.878 173.984 39.0725 174.4 39.0725ZM172.508 44.5263C172.508 45.0898 172.683 45.566 173.032 45.9551C173.381 46.3442 174.004 46.5387 174.903 46.5387C175.574 46.5387 176.044 46.3777 176.312 46.0557C176.58 45.7337 176.714 45.3782 176.714 44.9891C176.714 44.6806 176.574 44.4391 176.292 44.2647C176.024 44.0902 175.661 43.9494 175.205 43.842C174.749 43.7347 174.239 43.6341 173.676 43.5402C173.34 43.4865 173.038 43.4261 172.77 43.3591C172.676 43.5335 172.609 43.7213 172.569 43.9225C172.529 44.1372 172.508 44.3384 172.508 44.5263ZM184.055 31.3648C183.478 31.3648 183.015 31.1971 182.666 30.8617C182.331 30.5129 182.163 30.05 182.163 29.4731C182.163 28.9097 182.337 28.4535 182.686 28.1047C183.048 27.7558 183.518 27.5814 184.095 27.5814C184.685 27.5814 185.148 27.7558 185.483 28.1047C185.832 28.4535 186.007 28.9097 186.007 29.4731C186.007 30.05 185.826 30.5129 185.463 30.8617C185.114 31.1971 184.645 31.3648 184.055 31.3648ZM181.801 43.7012C181.653 43.5536 181.539 43.3926 181.459 43.2182C181.378 43.0438 181.338 42.8425 181.338 42.6144C181.727 42.6144 182.015 42.534 182.203 42.373C182.391 42.1985 182.485 41.9101 182.485 41.5076V35.6715C182.485 35.3227 182.398 35.061 182.223 34.8866C182.062 34.7122 181.707 34.625 181.157 34.625V33.7395C181.358 33.6188 181.666 33.4846 182.082 33.337C182.498 33.1761 182.948 33.0419 183.431 32.9346C183.927 32.8272 184.37 32.7736 184.759 32.7736C185.067 32.7736 185.289 32.8474 185.423 32.9949C185.557 33.1291 185.624 33.3639 185.624 33.6993V41.5277C185.624 41.9302 185.725 42.212 185.926 42.373C186.127 42.534 186.423 42.6144 186.812 42.6144C186.812 42.8425 186.771 43.0438 186.691 43.2182C186.61 43.3926 186.496 43.5536 186.349 43.7012H181.801ZM193.183 43.8823C191.68 43.8823 190.48 43.406 189.581 42.4535C188.695 41.5009 188.252 40.1727 188.252 38.4688C188.252 37.3016 188.474 36.2954 188.917 35.4501C189.359 34.5915 189.956 33.9341 190.708 33.4779C191.472 33.0218 192.338 32.7937 193.304 32.7937C194.511 32.7937 195.477 33.1492 196.202 33.8603C196.939 34.5579 197.308 35.544 197.308 36.8186C197.308 37.3284 197.221 37.7779 197.047 38.1669C196.886 38.5426 196.544 38.7304 196.02 38.7304H191.674C191.714 39.7903 191.955 40.5416 192.398 40.9844C192.854 41.4271 193.445 41.6485 194.169 41.6485C194.625 41.6485 195.048 41.5814 195.437 41.4472C195.826 41.2996 196.188 41.0984 196.524 40.8435C196.644 40.9508 196.738 41.1185 196.805 41.3466C196.886 41.5613 196.926 41.7424 196.926 41.89C196.926 42.1046 196.772 42.373 196.463 42.6949C196.168 43.0035 195.739 43.2786 195.175 43.5201C194.625 43.7615 193.961 43.8823 193.183 43.8823ZM191.674 37.201H193.706C193.934 37.201 194.075 37.1137 194.129 36.9393C194.196 36.7649 194.229 36.5503 194.229 36.2954C194.229 35.4367 194.122 34.8732 193.907 34.6049C193.706 34.3231 193.465 34.1823 193.183 34.1823C192.955 34.1823 192.727 34.2695 192.499 34.4439C192.271 34.6183 192.083 34.9269 191.935 35.3696C191.788 35.7989 191.7 36.4094 191.674 37.201ZM203.18 43.9024C202.697 43.9024 202.207 43.8488 201.711 43.7414C201.228 43.6341 200.779 43.4798 200.363 43.2786C199.96 43.0773 199.631 42.8291 199.377 42.534C199.122 42.2254 198.994 41.8765 198.994 41.4875C198.994 41.0179 199.128 40.6422 199.397 40.3605C199.665 40.0653 200.007 39.9178 200.423 39.9178C200.799 39.9178 201.114 40.0385 201.369 40.28C201.637 40.5215 201.771 40.8368 201.771 41.2259C201.771 41.4003 201.745 41.5546 201.691 41.6887C201.637 41.8095 201.557 41.9436 201.449 42.0912C201.57 42.212 201.785 42.2992 202.093 42.3528C202.402 42.4065 202.704 42.4333 202.999 42.4333C203.469 42.4333 203.831 42.3461 204.086 42.1717C204.341 41.9973 204.468 41.7826 204.468 41.5277C204.468 41.1252 204.253 40.7831 203.824 40.5014C203.395 40.2062 202.905 39.9111 202.355 39.6159C201.859 39.3476 201.362 39.0658 200.866 38.7707C200.383 38.4621 199.974 38.0797 199.638 37.6236C199.316 37.1674 199.155 36.5905 199.155 35.8929C199.155 35.0074 199.524 34.2762 200.262 33.6993C201 33.1224 202.046 32.8339 203.401 32.8339C204.341 32.8339 205.092 32.9547 205.655 33.1962C206.219 33.4243 206.628 33.7194 206.883 34.0817C207.138 34.4305 207.265 34.7994 207.265 35.1885C207.265 35.6044 207.131 35.9398 206.863 36.1947C206.608 36.4362 206.293 36.557 205.917 36.557C205.582 36.557 205.286 36.4563 205.032 36.2551C204.777 36.0404 204.649 35.7654 204.649 35.43C204.649 35.269 204.676 35.0946 204.73 34.9068C204.783 34.7189 204.857 34.5646 204.951 34.4439C204.803 34.3231 204.629 34.2427 204.428 34.2024C204.24 34.1487 204.012 34.1219 203.744 34.1219C203.301 34.1219 202.959 34.2292 202.717 34.4439C202.489 34.6451 202.375 34.8933 202.375 35.1885C202.375 35.6447 202.59 36.0203 203.019 36.3155C203.462 36.6106 203.952 36.8991 204.488 37.1808C204.985 37.4357 205.468 37.7108 205.937 38.0059C206.42 38.3011 206.823 38.67 207.145 39.1128C207.467 39.5555 207.628 40.1257 207.628 40.8234C207.628 41.5747 207.413 42.1784 206.984 42.6346C206.554 43.0773 205.998 43.3993 205.313 43.6005C204.642 43.8018 203.931 43.9024 203.18 43.9024Z" fill="#080515"/>
<path d="M81.9412 58.407L79.2112 54.207H80.5412L82.6712 57.557H82.0512L84.1812 54.207H85.4912L82.7412 58.407H81.9412ZM81.7812 61.207V57.687H82.9312V61.207H81.7812ZM87.0551 61.307C86.5885 61.307 86.1651 61.197 85.7851 60.977C85.4051 60.7504 85.1018 60.447 84.8751 60.067C84.6551 59.687 84.5451 59.2637 84.5451 58.797C84.5451 58.3304 84.6551 57.9104 84.8751 57.537C85.1018 57.1637 85.4051 56.867 85.7851 56.647C86.1651 56.4204 86.5885 56.307 87.0551 56.307C87.5285 56.307 87.9551 56.417 88.3351 56.637C88.7151 56.857 89.0151 57.157 89.2351 57.537C89.4618 57.9104 89.5751 58.3304 89.5751 58.797C89.5751 59.2637 89.4618 59.687 89.2351 60.067C89.0151 60.447 88.7151 60.7504 88.3351 60.977C87.9551 61.197 87.5285 61.307 87.0551 61.307ZM87.0551 60.247C87.3285 60.247 87.5685 60.187 87.7751 60.067C87.9885 59.9404 88.1518 59.767 88.2651 59.547C88.3851 59.327 88.4451 59.077 88.4451 58.797C88.4451 58.517 88.3851 58.2704 88.2651 58.057C88.1451 57.8437 87.9818 57.677 87.7751 57.557C87.5685 57.4304 87.3285 57.367 87.0551 57.367C86.7885 57.367 86.5485 57.4304 86.3351 57.557C86.1285 57.677 85.9651 57.8437 85.8451 58.057C85.7318 58.2704 85.6751 58.517 85.6751 58.797C85.6751 59.077 85.7318 59.327 85.8451 59.547C85.9651 59.767 86.1285 59.9404 86.3351 60.067C86.5485 60.187 86.7885 60.247 87.0551 60.247ZM92.4599 61.307C92.0532 61.307 91.6899 61.217 91.3699 61.037C91.0565 60.857 90.8099 60.6104 90.6299 60.297C90.4565 59.977 90.3699 59.6104 90.3699 59.197V56.407H91.4699V59.147C91.4699 59.3804 91.5065 59.5804 91.5799 59.747C91.6599 59.907 91.7732 60.0304 91.9199 60.117C92.0732 60.2037 92.2532 60.247 92.4599 60.247C92.7799 60.247 93.0232 60.1537 93.1899 59.967C93.3632 59.7737 93.4499 59.5004 93.4499 59.147V56.407H94.5499V59.197C94.5499 59.617 94.4599 59.987 94.2799 60.307C94.1065 60.6204 93.8632 60.867 93.5499 61.047C93.2365 61.2204 92.8732 61.307 92.4599 61.307ZM95.6559 61.207V56.407H96.7559V61.207H95.6559ZM96.7559 58.537L96.3759 58.347C96.3759 57.7404 96.5092 57.2504 96.7759 56.877C97.0492 56.497 97.4592 56.307 98.0059 56.307C98.2459 56.307 98.4626 56.3504 98.6559 56.437C98.8492 56.5237 99.0292 56.6637 99.1959 56.857L98.4759 57.597C98.3892 57.5037 98.2926 57.437 98.1859 57.397C98.0792 57.357 97.9559 57.337 97.8159 57.337C97.5092 57.337 97.2559 57.4337 97.0559 57.627C96.8559 57.8204 96.7559 58.1237 96.7559 58.537ZM102.056 61.207V54.207H103.206V61.207H102.056ZM106.506 61.207V54.207H107.656V61.207H106.506ZM102.846 58.107V57.057H106.756V58.107H102.846ZM111.255 61.307C110.775 61.307 110.342 61.2004 109.955 60.987C109.575 60.767 109.272 60.467 109.045 60.087C108.825 59.707 108.715 59.2804 108.715 58.807C108.715 58.3337 108.825 57.9104 109.045 57.537C109.265 57.157 109.562 56.857 109.935 56.637C110.315 56.417 110.735 56.307 111.195 56.307C111.642 56.307 112.035 56.4104 112.375 56.617C112.722 56.8237 112.992 57.107 113.185 57.467C113.385 57.827 113.485 58.237 113.485 58.697C113.485 58.777 113.478 58.8604 113.465 58.947C113.458 59.027 113.445 59.117 113.425 59.217H109.485V58.317H112.855L112.445 58.677C112.432 58.3837 112.375 58.137 112.275 57.937C112.175 57.737 112.032 57.5837 111.845 57.477C111.665 57.3704 111.442 57.317 111.175 57.317C110.895 57.317 110.652 57.377 110.445 57.497C110.238 57.617 110.078 57.787 109.965 58.007C109.852 58.2204 109.795 58.477 109.795 58.777C109.795 59.077 109.855 59.3404 109.975 59.567C110.095 59.7937 110.265 59.9704 110.485 60.097C110.705 60.217 110.958 60.277 111.245 60.277C111.492 60.277 111.718 60.2337 111.925 60.147C112.138 60.0604 112.318 59.9337 112.465 59.767L113.165 60.477C112.932 60.7504 112.648 60.957 112.315 61.097C111.982 61.237 111.628 61.307 111.255 61.307ZM116.377 61.307C115.944 61.307 115.55 61.197 115.197 60.977C114.85 60.757 114.574 60.4604 114.367 60.087C114.167 59.707 114.067 59.2837 114.067 58.817C114.067 58.3437 114.167 57.9204 114.367 57.547C114.574 57.167 114.85 56.867 115.197 56.647C115.55 56.4204 115.944 56.307 116.377 56.307C116.744 56.307 117.067 56.387 117.347 56.547C117.634 56.7004 117.86 56.9137 118.027 57.187C118.194 57.4604 118.277 57.7704 118.277 58.117V59.497C118.277 59.8437 118.194 60.1537 118.027 60.427C117.867 60.7004 117.644 60.917 117.357 61.077C117.07 61.2304 116.744 61.307 116.377 61.307ZM116.557 60.267C116.964 60.267 117.29 60.1304 117.537 59.857C117.79 59.5837 117.917 59.2337 117.917 58.807C117.917 58.5204 117.86 58.267 117.747 58.047C117.634 57.827 117.474 57.657 117.267 57.537C117.067 57.4104 116.83 57.347 116.557 57.347C116.29 57.347 116.054 57.4104 115.847 57.537C115.647 57.657 115.487 57.827 115.367 58.047C115.254 58.267 115.197 58.5204 115.197 58.807C115.197 59.0937 115.254 59.347 115.367 59.567C115.487 59.787 115.647 59.9604 115.847 60.087C116.054 60.207 116.29 60.267 116.557 60.267ZM117.847 61.207V59.917L118.037 58.747L117.847 57.587V56.407H118.947V61.207H117.847ZM120.168 61.207V54.007H121.268V61.207H120.168ZM123.222 61.207V54.407H124.322V61.207H123.222ZM122.072 57.407V56.407H125.472V57.407H122.072ZM129.561 61.207V58.437C129.561 58.117 129.458 57.8537 129.251 57.647C129.051 57.4404 128.791 57.337 128.471 57.337C128.258 57.337 128.068 57.3837 127.901 57.477C127.734 57.5704 127.604 57.7004 127.511 57.867C127.418 58.0337 127.371 58.2237 127.371 58.437L126.941 58.197C126.941 57.8304 127.021 57.507 127.181 57.227C127.341 56.9404 127.561 56.717 127.841 56.557C128.128 56.3904 128.448 56.307 128.801 56.307C129.161 56.307 129.481 56.387 129.761 56.547C130.041 56.707 130.261 56.9304 130.421 57.217C130.581 57.497 130.661 57.8237 130.661 58.197V61.207H129.561ZM126.271 61.207V54.007H127.371V61.207H126.271ZM137.111 61.307C136.604 61.307 136.134 61.217 135.701 61.037C135.274 60.8504 134.901 60.5937 134.581 60.267C134.261 59.9337 134.014 59.5504 133.841 59.117C133.668 58.677 133.581 58.207 133.581 57.707C133.581 57.207 133.668 56.7404 133.841 56.307C134.014 55.867 134.261 55.4837 134.581 55.157C134.901 54.8304 135.274 54.5737 135.701 54.387C136.134 54.2004 136.604 54.107 137.111 54.107C137.678 54.107 138.168 54.2004 138.581 54.387C138.994 54.5737 139.361 54.827 139.681 55.147L138.901 55.927C138.694 55.7004 138.441 55.5237 138.141 55.397C137.848 55.2704 137.504 55.207 137.111 55.207C136.764 55.207 136.448 55.267 136.161 55.387C135.874 55.507 135.624 55.6804 135.411 55.907C135.204 56.127 135.044 56.3904 134.931 56.697C134.818 57.0037 134.761 57.3404 134.761 57.707C134.761 58.0737 134.818 58.4104 134.931 58.717C135.044 59.0237 135.204 59.2904 135.411 59.517C135.624 59.737 135.874 59.907 136.161 60.027C136.448 60.147 136.764 60.207 137.111 60.207C137.538 60.207 137.898 60.1437 138.191 60.017C138.491 59.8837 138.744 59.7037 138.951 59.477L139.731 60.257C139.411 60.5837 139.034 60.8404 138.601 61.027C138.168 61.2137 137.671 61.307 137.111 61.307ZM142.48 61.307C142.047 61.307 141.654 61.197 141.3 60.977C140.954 60.757 140.677 60.4604 140.47 60.087C140.27 59.707 140.17 59.2837 140.17 58.817C140.17 58.3437 140.27 57.9204 140.47 57.547C140.677 57.167 140.954 56.867 141.3 56.647C141.654 56.4204 142.047 56.307 142.48 56.307C142.847 56.307 143.17 56.387 143.45 56.547C143.737 56.7004 143.964 56.9137 144.13 57.187C144.297 57.4604 144.38 57.7704 144.38 58.117V59.497C144.38 59.8437 144.297 60.1537 144.13 60.427C143.97 60.7004 143.747 60.917 143.46 61.077C143.174 61.2304 142.847 61.307 142.48 61.307ZM142.66 60.267C143.067 60.267 143.394 60.1304 143.64 59.857C143.894 59.5837 144.02 59.2337 144.02 58.807C144.02 58.5204 143.964 58.267 143.85 58.047C143.737 57.827 143.577 57.657 143.37 57.537C143.17 57.4104 142.934 57.347 142.66 57.347C142.394 57.347 142.157 57.4104 141.95 57.537C141.75 57.657 141.59 57.827 141.47 58.047C141.357 58.267 141.3 58.5204 141.3 58.807C141.3 59.0937 141.357 59.347 141.47 59.567C141.59 59.787 141.75 59.9604 141.95 60.087C142.157 60.207 142.394 60.267 142.66 60.267ZM143.95 61.207V59.917L144.14 58.747L143.95 57.587V56.407H145.05V61.207H143.95ZM146.271 61.207V56.407H147.371V61.207H146.271ZM147.371 58.537L146.991 58.347C146.991 57.7404 147.124 57.2504 147.391 56.877C147.664 56.497 148.074 56.307 148.621 56.307C148.861 56.307 149.078 56.3504 149.271 56.437C149.464 56.5237 149.644 56.6637 149.811 56.857L149.091 57.597C149.004 57.5037 148.908 57.437 148.801 57.397C148.694 57.357 148.571 57.337 148.431 57.337C148.124 57.337 147.871 57.4337 147.671 57.627C147.471 57.8204 147.371 58.1237 147.371 58.537ZM152.427 61.307C151.947 61.307 151.514 61.2004 151.127 60.987C150.747 60.767 150.444 60.467 150.217 60.087C149.997 59.707 149.887 59.2804 149.887 58.807C149.887 58.3337 149.997 57.9104 150.217 57.537C150.437 57.157 150.734 56.857 151.107 56.637C151.487 56.417 151.907 56.307 152.367 56.307C152.814 56.307 153.207 56.4104 153.547 56.617C153.894 56.8237 154.164 57.107 154.357 57.467C154.557 57.827 154.657 58.237 154.657 58.697C154.657 58.777 154.65 58.8604 154.637 58.947C154.63 59.027 154.617 59.117 154.597 59.217H150.657V58.317H154.027L153.617 58.677C153.604 58.3837 153.547 58.137 153.447 57.937C153.347 57.737 153.204 57.5837 153.017 57.477C152.837 57.3704 152.614 57.317 152.347 57.317C152.067 57.317 151.824 57.377 151.617 57.497C151.41 57.617 151.25 57.787 151.137 58.007C151.024 58.2204 150.967 58.477 150.967 58.777C150.967 59.077 151.027 59.3404 151.147 59.567C151.267 59.7937 151.437 59.9704 151.657 60.097C151.877 60.217 152.13 60.277 152.417 60.277C152.664 60.277 152.89 60.2337 153.097 60.147C153.31 60.0604 153.49 59.9337 153.637 59.767L154.337 60.477C154.104 60.7504 153.82 60.957 153.487 61.097C153.154 61.237 152.8 61.307 152.427 61.307ZM160.871 61.307C160.364 61.307 159.894 61.217 159.461 61.037C159.034 60.8504 158.661 60.5937 158.341 60.267C158.021 59.9337 157.774 59.5504 157.601 59.117C157.427 58.677 157.341 58.207 157.341 57.707C157.341 57.207 157.427 56.7404 157.601 56.307C157.774 55.867 158.021 55.4837 158.341 55.157C158.661 54.8304 159.034 54.5737 159.461 54.387C159.894 54.2004 160.364 54.107 160.871 54.107C161.437 54.107 161.927 54.2004 162.341 54.387C162.754 54.5737 163.121 54.827 163.441 55.147L162.661 55.927C162.454 55.7004 162.201 55.5237 161.901 55.397C161.607 55.2704 161.264 55.207 160.871 55.207C160.524 55.207 160.207 55.267 159.921 55.387C159.634 55.507 159.384 55.6804 159.171 55.907C158.964 56.127 158.804 56.3904 158.691 56.697C158.577 57.0037 158.521 57.3404 158.521 57.707C158.521 58.0737 158.577 58.4104 158.691 58.717C158.804 59.0237 158.964 59.2904 159.171 59.517C159.384 59.737 159.634 59.907 159.921 60.027C160.207 60.147 160.524 60.207 160.871 60.207C161.297 60.207 161.657 60.1437 161.951 60.017C162.251 59.8837 162.504 59.7037 162.711 59.477L163.491 60.257C163.171 60.5837 162.794 60.8404 162.361 61.027C161.927 61.2137 161.431 61.307 160.871 61.307ZM166.43 61.307C165.963 61.307 165.54 61.197 165.16 60.977C164.78 60.7504 164.477 60.447 164.25 60.067C164.03 59.687 163.92 59.2637 163.92 58.797C163.92 58.3304 164.03 57.9104 164.25 57.537C164.477 57.1637 164.78 56.867 165.16 56.647C165.54 56.4204 165.963 56.307 166.43 56.307C166.903 56.307 167.33 56.417 167.71 56.637C168.09 56.857 168.39 57.157 168.61 57.537C168.837 57.9104 168.95 58.3304 168.95 58.797C168.95 59.2637 168.837 59.687 168.61 60.067C168.39 60.447 168.09 60.7504 167.71 60.977C167.33 61.197 166.903 61.307 166.43 61.307ZM166.43 60.247C166.703 60.247 166.943 60.187 167.15 60.067C167.363 59.9404 167.527 59.767 167.64 59.547C167.76 59.327 167.82 59.077 167.82 58.797C167.82 58.517 167.76 58.2704 167.64 58.057C167.52 57.8437 167.357 57.677 167.15 57.557C166.943 57.4304 166.703 57.367 166.43 57.367C166.163 57.367 165.923 57.4304 165.71 57.557C165.503 57.677 165.34 57.8437 165.22 58.057C165.107 58.2704 165.05 58.517 165.05 58.797C165.05 59.077 165.107 59.327 165.22 59.547C165.34 59.767 165.503 59.9404 165.71 60.067C165.923 60.187 166.163 60.247 166.43 60.247ZM169.865 61.207V56.407H170.965V61.207H169.865ZM173.055 61.207V58.347C173.055 58.027 172.955 57.7804 172.755 57.607C172.555 57.427 172.308 57.337 172.015 57.337C171.815 57.337 171.635 57.377 171.475 57.457C171.322 57.537 171.198 57.6537 171.105 57.807C171.012 57.9537 170.965 58.1337 170.965 58.347L170.535 58.107C170.535 57.7404 170.615 57.4237 170.775 57.157C170.935 56.8904 171.152 56.6837 171.425 56.537C171.698 56.3837 172.005 56.307 172.345 56.307C172.685 56.307 172.992 56.3804 173.265 56.527C173.538 56.6737 173.755 56.8804 173.915 57.147C174.075 57.4137 174.155 57.7337 174.155 58.107V61.207H173.055ZM176.245 61.207V58.347C176.245 58.027 176.145 57.7804 175.945 57.607C175.745 57.427 175.498 57.337 175.205 57.337C175.012 57.337 174.835 57.377 174.675 57.457C174.515 57.537 174.388 57.6537 174.295 57.807C174.202 57.9537 174.155 58.1337 174.155 58.347L173.535 58.107C173.568 57.7404 173.675 57.4237 173.855 57.157C174.035 56.8904 174.265 56.6837 174.545 56.537C174.832 56.3837 175.145 56.307 175.485 56.307C175.832 56.307 176.145 56.3804 176.425 56.527C176.705 56.6737 176.928 56.8804 177.095 57.147C177.262 57.4137 177.345 57.7337 177.345 58.107V61.207H176.245ZM181.048 61.307C180.681 61.307 180.355 61.2304 180.068 61.077C179.781 60.917 179.555 60.7004 179.388 60.427C179.228 60.1537 179.148 59.8437 179.148 59.497V58.117C179.148 57.7704 179.231 57.4604 179.398 57.187C179.565 56.9137 179.791 56.7004 180.078 56.547C180.365 56.387 180.688 56.307 181.048 56.307C181.481 56.307 181.871 56.4204 182.218 56.647C182.571 56.867 182.848 57.167 183.048 57.547C183.255 57.9204 183.358 58.3437 183.358 58.817C183.358 59.2837 183.255 59.707 183.048 60.087C182.848 60.4604 182.571 60.757 182.218 60.977C181.871 61.197 181.481 61.307 181.048 61.307ZM178.478 63.207V56.407H179.578V57.697L179.388 58.867L179.578 60.027V63.207H178.478ZM180.868 60.267C181.135 60.267 181.368 60.207 181.568 60.087C181.775 59.9604 181.935 59.787 182.048 59.567C182.168 59.347 182.228 59.0937 182.228 58.807C182.228 58.5204 182.168 58.267 182.048 58.047C181.935 57.827 181.775 57.657 181.568 57.537C181.368 57.4104 181.135 57.347 180.868 57.347C180.601 57.347 180.365 57.4104 180.158 57.537C179.951 57.657 179.791 57.827 179.678 58.047C179.565 58.267 179.508 58.5204 179.508 58.807C179.508 59.0937 179.565 59.347 179.678 59.567C179.791 59.787 179.951 59.9604 180.158 60.087C180.365 60.207 180.601 60.267 180.868 60.267ZM186.289 61.307C185.856 61.307 185.462 61.197 185.109 60.977C184.762 60.757 184.486 60.4604 184.279 60.087C184.079 59.707 183.979 59.2837 183.979 58.817C183.979 58.3437 184.079 57.9204 184.279 57.547C184.486 57.167 184.762 56.867 185.109 56.647C185.462 56.4204 185.856 56.307 186.289 56.307C186.656 56.307 186.979 56.387 187.259 56.547C187.546 56.7004 187.772 56.9137 187.939 57.187C188.106 57.4604 188.189 57.7704 188.189 58.117V59.497C188.189 59.8437 188.106 60.1537 187.939 60.427C187.779 60.7004 187.556 60.917 187.269 61.077C186.982 61.2304 186.656 61.307 186.289 61.307ZM186.469 60.267C186.876 60.267 187.202 60.1304 187.449 59.857C187.702 59.5837 187.829 59.2337 187.829 58.807C187.829 58.5204 187.772 58.267 187.659 58.047C187.546 57.827 187.386 57.657 187.179 57.537C186.979 57.4104 186.742 57.347 186.469 57.347C186.202 57.347 185.966 57.4104 185.759 57.537C185.559 57.657 185.399 57.827 185.279 58.047C185.166 58.267 185.109 58.5204 185.109 58.807C185.109 59.0937 185.166 59.347 185.279 59.567C185.399 59.787 185.559 59.9604 185.759 60.087C185.966 60.207 186.202 60.267 186.469 60.267ZM187.759 61.207V59.917L187.949 58.747L187.759 57.587V56.407H188.859V61.207H187.759ZM193.37 61.207V58.437C193.37 58.117 193.266 57.8537 193.06 57.647C192.86 57.4404 192.6 57.337 192.28 57.337C192.066 57.337 191.876 57.3837 191.71 57.477C191.543 57.5704 191.413 57.7004 191.32 57.867C191.226 58.0337 191.18 58.2237 191.18 58.437L190.75 58.197C190.75 57.8304 190.83 57.507 190.99 57.227C191.15 56.9404 191.37 56.717 191.65 56.557C191.936 56.3904 192.256 56.307 192.61 56.307C192.97 56.307 193.29 56.4004 193.57 56.587C193.85 56.767 194.07 57.0037 194.23 57.297C194.39 57.5837 194.47 57.8837 194.47 58.197V61.207H193.37ZM190.08 61.207V56.407H191.18V61.207H190.08ZM195.598 61.207V56.407H196.698V61.207H195.598ZM196.148 55.527C195.961 55.527 195.804 55.4637 195.678 55.337C195.558 55.2104 195.498 55.0537 195.498 54.867C195.498 54.6804 195.558 54.5237 195.678 54.397C195.804 54.2704 195.961 54.207 196.148 54.207C196.341 54.207 196.498 54.2704 196.618 54.397C196.738 54.5237 196.798 54.6804 196.798 54.867C196.798 55.0537 196.738 55.2104 196.618 55.337C196.498 55.4637 196.341 55.527 196.148 55.527ZM200.131 61.307C199.665 61.307 199.241 61.197 198.861 60.977C198.481 60.7504 198.178 60.447 197.951 60.067C197.731 59.687 197.621 59.2637 197.621 58.797C197.621 58.3304 197.731 57.9104 197.951 57.537C198.178 57.1637 198.481 56.867 198.861 56.647C199.241 56.4204 199.665 56.307 200.131 56.307C200.605 56.307 201.031 56.417 201.411 56.637C201.791 56.857 202.091 57.157 202.311 57.537C202.538 57.9104 202.651 58.3304 202.651 58.797C202.651 59.2637 202.538 59.687 202.311 60.067C202.091 60.447 201.791 60.7504 201.411 60.977C201.031 61.197 200.605 61.307 200.131 61.307ZM200.131 60.247C200.405 60.247 200.645 60.187 200.851 60.067C201.065 59.9404 201.228 59.767 201.341 59.547C201.461 59.327 201.521 59.077 201.521 58.797C201.521 58.517 201.461 58.2704 201.341 58.057C201.221 57.8437 201.058 57.677 200.851 57.557C200.645 57.4304 200.405 57.367 200.131 57.367C199.865 57.367 199.625 57.4304 199.411 57.557C199.205 57.677 199.041 57.8437 198.921 58.057C198.808 58.2704 198.751 58.517 198.751 58.797C198.751 59.077 198.808 59.327 198.921 59.547C199.041 59.767 199.205 59.9404 199.411 60.067C199.625 60.187 199.865 60.247 200.131 60.247ZM206.856 61.207V58.437C206.856 58.117 206.753 57.8537 206.546 57.647C206.346 57.4404 206.086 57.337 205.766 57.337C205.553 57.337 205.363 57.3837 205.196 57.477C205.029 57.5704 204.899 57.7004 204.806 57.867C204.713 58.0337 204.666 58.2237 204.666 58.437L204.236 58.197C204.236 57.8304 204.316 57.507 204.476 57.227C204.636 56.9404 204.856 56.717 205.136 56.557C205.423 56.3904 205.743 56.307 206.096 56.307C206.456 56.307 206.776 56.4004 207.056 56.587C207.336 56.767 207.556 57.0037 207.716 57.297C207.876 57.5837 207.956 57.8837 207.956 58.197V61.207H206.856ZM203.566 61.207V56.407H204.666V61.207H203.566Z" fill="#591958"/>
<defs>
<linearGradient id="paint0_linear_1_9387" x1="54.0927" y1="34.8082" x2="4.03542" y2="27.7572" gradientUnits="userSpaceOnUse">
<stop stop-color="#4D164F"/>
<stop offset="1" stop-color="#681E65"/>
</linearGradient>
<linearGradient id="paint1_linear_1_9387" x1="56.798" y1="5.90942" x2="5.8603" y2="59.8791" gradientUnits="userSpaceOnUse">
<stop stop-color="#B428B4"/>
<stop offset="0.281679" stop-color="#571D57"/>
<stop offset="0.542578" stop-color="#5F245F"/>
<stop offset="0.80316" stop-color="#B428B4"/>
<stop offset="1" stop-color="#571D57"/>
</linearGradient>
</defs>
</svg>
