<svg width="213" height="70" viewBox="0 0 213 70" fill="none" xmlns="http://www.w3.org/2000/svg">
<path d="M47.4267 27.6738V29.5832H40.5202C40.1973 29.5807 39.8883 29.4615 39.659 29.2511C39.5671 29.1616 39.4887 29.0611 39.4258 28.9523L37.6137 25.7312L36.7346 24.1372L35.2635 21.5304L33.0926 27.5077L31.7829 31.1605L28.8227 39.2963L27.513 42.9325L27.226 43.7129C27.1417 43.9388 26.9853 44.1357 26.7774 44.2774C26.5738 44.4144 26.3294 44.4898 26.0777 44.4933H25.8445C25.6086 44.4618 25.3892 44.3631 25.2166 44.211C25.0404 44.0523 24.9161 43.8509 24.8578 43.6299L24.7322 43.1152L23.6198 38.7484L23.1354 36.7726L21.8796 31.7915L21.3952 29.8322L20.2828 25.4489L19.7805 23.4731L18.6323 18.8739L18.1479 16.9146L18.0402 16.5493L17.6993 17.3297L15.7797 21.5304L12.4247 28.8692C12.3442 29.0837 12.1856 29.2657 11.9762 29.384C11.7776 29.5158 11.5388 29.5856 11.2944 29.5832H5.05859V27.6738H10.7742L11.9403 25.0836L13.8241 20.8995L17.1432 13.6603C17.2309 13.4311 17.4022 13.2374 17.6276 13.1124C17.8449 12.9793 18.103 12.9152 18.3632 12.9298C18.6281 12.9532 18.8787 13.0518 19.0808 13.212C19.267 13.3794 19.3977 13.5926 19.4575 13.8263L19.8522 15.3373L20.3366 17.2965L21.4849 21.8791L21.9872 23.8549L23.0995 28.2217L23.584 30.1975L24.8398 35.162L25.3242 37.1378L26.1854 40.5748L28.5177 34.1824L29.8274 30.5296L33.2003 21.2814L33.9359 19.2225C34.0115 19.006 34.1552 18.8153 34.3485 18.6746C34.5394 18.5371 34.7708 18.456 35.0123 18.4422C35.1771 18.4313 35.3424 18.4539 35.4967 18.5086C35.6552 18.5594 35.8014 18.6384 35.9273 18.741C36.0459 18.8288 36.1385 18.9431 36.1964 19.0731L38.2417 22.7259L39.1567 24.3198L41.0225 27.6738H47.4267Z" fill="url(#paint0_linear_420_7)"/>
<path d="M56.2447 54.7126L54.5403 56.2899L55.0965 56.8046C55.7946 56.4183 56.4445 55.9617 57.0341 55.4431L56.2447 54.7126ZM59.8867 51.3421L58.1823 52.9194L58.7923 53.5005C59.2596 52.8457 59.6448 52.1439 59.9406 51.4085L59.8867 51.3421ZM49.2657 2.19531H11.3745C8.35927 2.1997 5.46887 3.31017 3.33676 5.28336C1.20465 7.25655 0.00474471 9.93151 0 12.722V47.7889C0.00474471 50.5794 1.20465 53.2543 3.33676 55.2275C5.46887 57.2007 8.35927 58.3112 11.3745 58.3156H42.3764C42.1395 58.2638 41.9218 58.1543 41.746 57.9984C41.5702 57.8426 41.4428 57.6459 41.3769 57.4291C41.311 57.2122 41.309 56.9829 41.3712 56.765C41.4334 56.5472 41.5575 56.3488 41.7305 56.1903L42.7532 55.2439C42.878 55.1225 43.0283 55.0259 43.1949 54.9603C43.3615 54.8946 43.5409 54.8612 43.722 54.862C43.9915 54.8636 44.2544 54.939 44.4776 55.0788C44.7008 55.2186 44.8743 55.4165 44.976 55.6475C45.0778 55.8784 45.1033 56.1321 45.0493 56.3765C44.9953 56.6209 44.8643 56.845 44.6728 57.0205L43.6502 57.9669C43.4664 58.1444 43.2287 58.266 42.9685 58.3156H49.2657C49.6318 58.3182 49.9976 58.296 50.3601 58.2492C50.0824 57.7441 49.6759 57.3093 49.1757 56.9823C48.6755 56.6554 48.0968 56.4463 47.4896 56.3729C47.5275 55.8677 47.446 55.361 47.2508 54.8878C47.0556 54.4147 46.7514 53.9866 46.3593 53.6333H11.3745C9.69964 53.6333 8.09334 53.0176 6.90901 51.9215C5.72468 50.8255 5.05933 49.3389 5.05933 47.7889V12.722C5.05933 11.172 5.72468 9.6854 6.90901 8.58934C8.09334 7.49329 9.69964 6.87754 11.3745 6.87754H49.2657C50.9392 6.88192 52.5427 7.49908 53.726 8.59418C54.9093 9.68929 55.5762 11.1733 55.5809 12.722V43.5716L57.5365 41.7618C58.4282 40.9786 59.4763 40.3638 60.6223 39.952V12.722C60.6223 9.93303 59.4264 7.25804 57.2971 5.28438C55.1679 3.31071 52.2793 2.19971 49.2657 2.19531ZM60.0123 44.7172L59.1512 45.5142C58.6909 45.9382 58.0964 46.2151 57.4542 46.3047C56.8121 46.3943 56.1558 46.2918 55.5809 46.0123V47.7889C55.5809 47.9881 55.563 48.1708 55.545 48.37C56.2752 48.561 57.0405 48.608 57.7915 48.5079C58.5425 48.4078 59.2625 48.1628 59.9047 47.7889L60.6044 48.4364C60.6223 48.2206 60.6223 48.0047 60.6223 47.7889V45.2817L60.0123 44.7172Z" fill="url(#paint1_linear_420_7)"/>
<path d="M71.0814 40.1854C70.0579 39.2413 68.8404 38.4966 67.5008 37.9952C66.1611 37.4937 64.7265 37.2458 63.2817 37.2659C61.8368 37.286 60.4109 37.5738 59.0882 38.1123C57.7655 38.6508 56.5728 39.4291 55.5804 40.4012L55.4369 40.5507C51.2926 36.3333 44.1341 36.1341 39.7924 40.1854C37.8877 41.9458 36.7635 44.302 36.6406 46.7906C36.5178 49.2793 37.4053 51.7205 39.1286 53.6343C39.4158 53.964 39.7276 54.2746 40.0615 54.5641C39.5545 55.0226 39.1967 55.6036 39.0289 56.241C38.8612 56.8785 38.8902 57.5467 39.1127 58.1696C39.3352 58.7925 39.7422 59.3451 40.2874 59.7644C40.8326 60.1837 41.4941 60.453 42.1965 60.5414C41.9992 62.5007 43.8112 64.3104 45.9462 64.2772C46.0717 66.4357 48.422 67.9965 50.6826 67.4153C51.4181 69.9889 54.9525 70.8855 56.9978 68.9761C58.146 67.9134 59.061 67.2493 59.1327 65.6221C61.0345 65.5889 62.685 64.0448 62.7209 62.2682C64.6406 62.235 66.327 60.6909 66.345 58.9143C68.3543 58.8811 70.0767 57.2041 69.987 55.3113L71.0814 54.2985C72.0828 53.3718 72.8771 52.2717 73.4191 51.0609C73.9611 49.8502 74.24 48.5525 74.24 47.2419C74.24 45.9314 73.9611 44.6337 73.4191 43.4229C72.8771 42.2121 72.0828 41.112 71.0814 40.1854ZM42.3759 58.3165C42.139 58.2648 41.9213 58.1553 41.7455 57.9994C41.5698 57.8435 41.4423 57.6469 41.3764 57.43C41.3105 57.2131 41.3085 56.9838 41.3707 56.766C41.4329 56.5482 41.557 56.3497 41.7301 56.1913L42.7527 55.2449C42.8775 55.1234 43.0278 55.0269 43.1944 54.9612C43.361 54.8956 43.5404 54.8621 43.7215 54.863C43.991 54.8646 44.254 54.94 44.4772 55.0798C44.7004 55.2196 44.8738 55.4175 44.9755 55.6484C45.0773 55.8794 45.1028 56.1331 45.0488 56.3775C44.9949 56.6219 44.8639 56.8459 44.6724 57.0215L43.6497 57.9679C43.4659 58.1454 43.2282 58.267 42.968 58.3165C42.7742 58.366 42.5697 58.366 42.3759 58.3165ZM47.9555 60.7241L47.0406 61.5542C46.9072 61.7049 46.7406 61.8273 46.5518 61.9132C46.363 61.9991 46.1565 62.0466 45.9462 62.0524C45.5829 62.048 45.2361 61.9114 44.9809 61.6721C44.7257 61.4328 44.5826 61.1101 44.5827 60.7739C44.5841 60.6091 44.6215 60.4462 44.6923 60.2951C44.7632 60.1439 44.8663 60.0075 44.9953 59.8939L46.0179 58.9309C46.2787 58.6992 46.6253 58.5686 46.9867 58.5656C47.2578 58.5639 47.5232 58.6369 47.7492 58.7755C47.9751 58.914 48.1513 59.1117 48.2553 59.3434C48.3593 59.575 48.3863 59.8301 48.3329 60.076C48.2795 60.3219 48.1481 60.5476 47.9555 60.7241ZM51.7052 63.9784L50.6826 64.9248C50.4256 65.1626 50.0771 65.2962 49.7138 65.2962C49.3504 65.2962 49.0019 65.1626 48.7449 64.9248C48.488 64.687 48.3437 64.3645 48.3437 64.0282C48.3437 63.6919 48.488 63.3694 48.7449 63.1316L49.6599 62.3014C49.9002 62.0504 50.2384 61.898 50.6001 61.8778C50.9618 61.8575 51.3174 61.9711 51.5886 62.1935C51.8598 62.4159 52.0245 62.7288 52.0463 63.0636C52.0682 63.3983 51.9455 63.7274 51.7052 63.9784ZM56.316 66.4523L55.2934 67.3987C55.035 67.634 54.687 67.7658 54.3246 67.7658C53.9621 67.7658 53.6141 67.634 53.3558 67.3987C53.2277 67.2814 53.1261 67.1417 53.0568 66.9878C52.9874 66.834 52.9517 66.6689 52.9517 66.5021C52.9517 66.3354 52.9874 66.1703 53.0568 66.0164C53.1261 65.8625 53.2277 65.7229 53.3558 65.6055L54.3963 64.6591C54.5216 64.5412 54.6709 64.4474 54.8357 64.3835C55.0005 64.3195 55.1775 64.2866 55.3562 64.2866C55.5349 64.2866 55.7118 64.3195 55.8766 64.3835C56.0414 64.4474 56.1908 64.5412 56.316 64.6591C56.566 64.9003 56.7056 65.2215 56.7056 65.5557C56.7056 65.8899 56.566 66.2112 56.316 66.4523ZM67.1882 56.3075C66.9276 56.5389 66.5805 56.668 66.2194 56.668C65.8583 56.668 65.5111 56.5389 65.2506 56.3075L59.9401 51.4094L59.8862 51.3596L58.1819 52.937L63.5462 57.9014C63.8008 58.1392 63.9428 58.4609 63.9411 58.7956C63.9395 59.1303 63.7942 59.4507 63.5372 59.6863C63.2803 59.9219 62.9327 60.0534 62.571 60.0518C62.2093 60.0503 61.8631 59.9158 61.6086 59.678L57.0336 55.4607L56.2442 54.7302L54.5399 56.3075L55.096 56.8222L59.9042 61.2554C60.0322 61.3727 60.1338 61.5124 60.2032 61.6663C60.2725 61.8201 60.3082 61.9852 60.3082 62.152C60.3082 62.3187 60.2725 62.4838 60.2032 62.6377C60.1338 62.7916 60.0322 62.9312 59.9042 63.0486C59.7789 63.1665 59.6296 63.2603 59.4648 63.3242C59.3 63.3882 59.123 63.4211 58.9443 63.4211C58.7656 63.4211 58.5887 63.3882 58.4239 63.3242C58.2591 63.2603 58.1098 63.1665 57.9845 63.0486C57.2742 62.4204 56.3297 62.0696 55.3472 62.069C55.0265 62.0738 54.7074 62.1128 54.3963 62.1852C54.0016 60.7075 52.3869 59.5784 50.7543 59.595C50.6949 58.7937 50.3369 58.0362 49.7415 57.4519C49.146 56.8675 48.35 56.4924 47.4891 56.3905C47.5361 55.7614 47.3988 55.1321 47.0916 54.5692C46.7844 54.0063 46.3187 53.5305 45.7436 53.1921C45.1686 52.8538 44.5055 52.6654 43.8243 52.6467C43.1432 52.6281 42.4692 52.78 41.8736 53.0864C38.2854 50.1309 38.0522 44.934 41.4968 41.7793C44.9415 38.6246 50.5211 38.8073 53.7325 42.1446L50.7543 44.9008L53.1405 47.1091C53.8016 47.7293 54.6326 48.1713 55.5445 48.3876C56.2747 48.5786 57.04 48.6256 57.7911 48.5255C58.5421 48.4254 59.262 48.1804 59.9042 47.8064L60.6039 48.454L67.1882 54.5309C67.437 54.7693 67.5761 55.0878 67.5761 55.4192C67.5761 55.7506 67.437 56.0691 67.1882 56.3075ZM69.377 52.7211L69.0182 53.0698L68.8926 52.9536L60.6218 45.2827L60.0118 44.7182L59.1507 45.5151C58.6904 45.9391 58.0959 46.2161 57.4537 46.3056C56.8116 46.3952 56.1553 46.2928 55.5804 46.0132C55.3129 45.8774 55.0657 45.71 54.8449 45.5151L54.1631 44.8842L57.536 41.7627C58.4277 40.9795 59.4759 40.3648 60.6218 39.9529C68.1749 37.2631 75.9972 46.0797 69.377 52.7211Z" fill="#CC8DCC"/>
<path d="M11.4642 49.9313C13.0991 49.9313 14.4244 48.7048 14.4244 47.1917C14.4244 45.6787 13.0991 44.4521 11.4642 44.4521C9.82925 44.4521 8.50391 45.6787 8.50391 47.1917C8.50391 48.7048 9.82925 49.9313 11.4642 49.9313Z" fill="#C694C6"/>
<ellipse cx="48.4109" cy="28.4577" rx="3.56714" ry="3.34247" fill="#CC6FCC"/>
<path d="M94.6616 16.7058C94.6616 17.0815 94.7488 17.3431 94.9233 17.4907C95.1111 17.6382 95.4197 17.712 95.849 17.712C95.849 17.9535 95.8087 18.1883 95.7282 18.4164C95.6477 18.6445 95.5404 18.839 95.4062 19H90.516C90.3818 18.839 90.2745 18.6445 90.194 18.4164C90.1135 18.1883 90.0732 17.9535 90.0732 17.712C90.516 17.712 90.8246 17.6382 90.999 17.4907C91.1868 17.3431 91.2807 17.0815 91.2807 16.7058V12.701H86.8533V16.7058C86.8533 17.0815 86.9405 17.3431 87.1149 17.4907C87.3028 17.6382 87.6181 17.712 88.0608 17.712C88.0608 17.9535 88.0205 18.1883 87.94 18.4164C87.8596 18.6445 87.7522 18.839 87.6181 19H82.7077C82.5735 18.839 82.4662 18.6445 82.3857 18.4164C82.3052 18.1883 82.2649 17.9535 82.2649 17.712C82.7077 17.712 83.0163 17.6382 83.1907 17.4907C83.3785 17.3431 83.4724 17.0815 83.4724 16.7058V7.24728C83.4724 6.87163 83.3785 6.61001 83.1907 6.46243C83.0163 6.30143 82.7077 6.22093 82.2649 6.22093C82.2649 5.99286 82.3052 5.76478 82.3857 5.5367C82.4662 5.30862 82.5735 5.11409 82.7077 4.95309H87.6181C87.7522 5.11409 87.8596 5.30862 87.94 5.5367C88.0205 5.76478 88.0608 5.99286 88.0608 6.22093C87.6181 6.22093 87.3028 6.30143 87.1149 6.46243C86.9405 6.61001 86.8533 6.87163 86.8533 7.24728V11.0106H91.2807V7.24728C91.2807 6.87163 91.1868 6.61001 90.999 6.46243C90.8111 6.30143 90.5026 6.22093 90.0732 6.22093C90.0732 5.99286 90.1135 5.76478 90.194 5.5367C90.2745 5.30862 90.3818 5.11409 90.516 4.95309H95.4062C95.5404 5.11409 95.6477 5.30862 95.7282 5.5367C95.8087 5.76478 95.849 5.99286 95.849 6.22093C95.4197 6.22093 95.1111 6.30143 94.9233 6.46243C94.7488 6.61001 94.6616 6.87163 94.6616 7.24728V16.7058ZM103.407 16.9473C104.252 16.9473 105.037 16.679 105.762 16.1423C105.869 16.2496 105.963 16.4106 106.043 16.6253C106.124 16.84 106.164 17.0278 106.164 17.1888C106.164 17.4303 106.003 17.712 105.681 18.034C105.359 18.3426 104.91 18.6109 104.333 18.839C103.769 19.0671 103.132 19.1811 102.421 19.1811C101.428 19.1811 100.556 18.9665 99.8047 18.5371C99.0668 18.1078 98.4966 17.484 98.0941 16.6656C97.6916 15.8472 97.4904 14.8812 97.4904 13.7676C97.4904 12.6272 97.705 11.6277 98.1344 10.7691C98.5771 9.91043 99.1808 9.25303 99.9456 8.79687C100.71 8.3273 101.576 8.09251 102.542 8.09251C103.763 8.09251 104.735 8.44805 105.46 9.15911C106.184 9.87018 106.546 10.8563 106.546 12.1174C106.546 12.7077 106.453 13.1773 106.265 13.5261C106.077 13.8615 105.741 14.0292 105.258 14.0292H100.912C100.992 15.9746 101.824 16.9473 103.407 16.9473ZM102.421 9.48111C102.005 9.48111 101.656 9.71589 101.374 10.1855C101.093 10.6416 100.938 11.4131 100.912 12.4998H102.944C103.159 12.4998 103.3 12.426 103.367 12.2784C103.434 12.1308 103.467 11.9028 103.467 11.5942C103.467 10.8026 103.373 10.2525 103.186 9.94397C102.998 9.63539 102.743 9.48111 102.421 9.48111ZM108.115 16.1624C108.115 15.2635 108.41 14.5525 109.001 14.0292C109.591 13.506 110.463 13.2444 111.617 13.2444C112.019 13.2444 112.429 13.2846 112.844 13.3651C113.274 13.4456 113.623 13.553 113.891 13.6871V11.0106C113.891 10.4739 113.757 10.0915 113.488 9.86347C113.22 9.62198 112.858 9.50123 112.402 9.50123C111.959 9.50123 111.597 9.60856 111.315 9.82322C111.57 9.90372 111.758 10.0446 111.878 10.2458C112.013 10.4337 112.08 10.6483 112.08 10.8898C112.08 11.3191 111.925 11.668 111.617 11.9363C111.308 12.2046 110.919 12.3388 110.45 12.3388C109.94 12.3388 109.531 12.1912 109.222 11.896C108.913 11.6009 108.759 11.2185 108.759 10.7489C108.759 10.2794 108.92 9.83664 109.242 9.42073C109.564 9.00483 110.054 8.66942 110.711 8.41451C111.382 8.1596 112.207 8.03214 113.187 8.03214C114.515 8.03214 115.521 8.30718 116.205 8.85725C116.889 9.3939 117.232 10.1855 117.232 11.2319V16.5649C117.232 17.2089 117.54 17.598 118.157 17.7322V18.3761C117.983 18.6176 117.694 18.8055 117.292 18.9396C116.889 19.0738 116.48 19.1409 116.064 19.1409C115.152 19.1409 114.508 18.8256 114.132 18.195C113.824 18.4633 113.448 18.6914 113.005 18.8793C112.563 19.0537 112.06 19.1409 111.496 19.1409C110.49 19.1409 109.671 18.8658 109.041 18.3158C108.424 17.7523 108.115 17.0345 108.115 16.1624ZM113.891 15.2367C113.743 15.1428 113.562 15.0623 113.348 14.9952C113.146 14.9281 112.952 14.8946 112.764 14.8946C112.388 14.8946 112.08 15.0153 111.838 15.2568C111.597 15.4849 111.476 15.8203 111.476 16.2631C111.476 16.6253 111.597 16.9272 111.838 17.1687C112.08 17.3967 112.402 17.5108 112.804 17.5108C113.005 17.5108 113.2 17.484 113.388 17.4303C113.589 17.3632 113.757 17.2827 113.891 17.1888V15.2367ZM120.776 6.12031C120.776 5.7849 120.675 5.5367 120.474 5.3757C120.286 5.20129 119.93 5.11409 119.407 5.11409V4.30911C119.89 4.04078 120.501 3.8127 121.239 3.62487C121.976 3.43704 122.573 3.34313 123.03 3.34313C123.352 3.34313 123.58 3.41021 123.714 3.54437C123.848 3.67854 123.915 3.91332 123.915 4.24873V16.8064C123.915 17.2223 123.996 17.5108 124.157 17.6718C124.331 17.8328 124.619 17.9133 125.022 17.9133C125.022 18.2889 124.861 18.6512 124.539 19H120.132C119.823 18.6646 119.669 18.3024 119.669 17.9133C120.058 17.9133 120.34 17.8328 120.514 17.6718C120.688 17.4974 120.776 17.2089 120.776 16.8064V6.12031ZM130.764 10.1251V15.8002C130.764 16.2027 130.845 16.4844 131.006 16.6454C131.167 16.793 131.395 16.8668 131.69 16.8668C131.945 16.8668 132.213 16.7997 132.495 16.6656C132.777 16.5314 132.998 16.3637 133.159 16.1624C133.293 16.2698 133.387 16.4308 133.441 16.6454C133.508 16.8601 133.541 17.0546 133.541 17.229C133.541 17.5376 133.434 17.8395 133.219 18.1346C133.005 18.4298 132.683 18.6713 132.253 18.8591C131.824 19.047 131.308 19.1409 130.704 19.1409C129.765 19.1409 129.007 18.8725 128.43 18.3359C127.866 17.7992 127.585 16.9071 127.585 15.6593V10.1251H126.317V8.89749C126.666 8.84383 127.001 8.62246 127.323 8.23339C127.658 7.8309 127.94 7.33449 128.168 6.74417C128.41 6.14044 128.564 5.54341 128.631 4.95309C128.873 4.91284 129.094 4.89272 129.295 4.89272C129.778 4.89272 130.134 5.03359 130.362 5.31533C130.603 5.58366 130.724 5.88553 130.724 6.22093V8.33401H133.058C133.058 8.7365 133.038 9.08532 132.998 9.38048C132.958 9.66223 132.871 9.91043 132.736 10.1251H130.764ZM146.038 18.4566C145.555 18.8994 144.817 19.1207 143.824 19.1207C142.469 19.1207 141.792 18.6981 141.792 17.8529V11.3728C141.792 10.9435 141.671 10.6148 141.429 10.3867C141.201 10.1452 140.886 10.0245 140.483 10.0245C140.215 10.0245 139.933 10.1117 139.638 10.2861C139.356 10.4605 139.148 10.6819 139.014 10.9502V16.8266C139.014 17.2156 139.095 17.4974 139.256 17.6718C139.43 17.8328 139.719 17.9133 140.121 17.9133C140.121 18.3292 139.967 18.6914 139.658 19H135.211C134.902 18.6914 134.748 18.3292 134.748 17.9133C135.15 17.9133 135.432 17.8328 135.593 17.6718C135.768 17.4974 135.855 17.2156 135.855 16.8266V5.91907C135.855 5.58366 135.761 5.33546 135.573 5.17446C135.385 5.01346 135.03 4.93297 134.506 4.93297V4.10786C134.989 3.85295 135.6 3.63158 136.338 3.44375C137.089 3.24251 137.693 3.14188 138.149 3.14188C138.458 3.14188 138.679 3.21567 138.813 3.36325C138.947 3.49742 139.014 3.7322 139.014 4.06761V8.03214L138.974 9.6421C139.336 9.17253 139.792 8.79016 140.343 8.495C140.906 8.19984 141.523 8.05227 142.194 8.05227C143.133 8.05227 143.844 8.30718 144.327 8.817C144.81 9.3134 145.052 10.0513 145.052 11.0307V16.6656C145.052 17.001 145.132 17.2693 145.293 17.4705C145.468 17.6718 145.709 17.8059 146.018 17.873L146.038 18.4566ZM163.445 4.7116C163.66 5.18117 163.828 6.03311 163.948 7.26741C164.069 8.50171 164.13 9.51465 164.13 10.3062C163.955 10.3733 163.68 10.427 163.304 10.4672C162.942 10.5075 162.614 10.5276 162.318 10.5276C162.238 9.45427 162.104 8.62917 161.916 8.05227C161.741 7.47536 161.5 7.07958 161.191 6.86492C160.883 6.65026 160.48 6.54293 159.984 6.54293H159.642V16.6253C159.642 17.001 159.816 17.276 160.165 17.4504C160.514 17.6248 161.051 17.712 161.775 17.712C161.775 17.9535 161.735 18.1883 161.654 18.4164C161.574 18.6445 161.46 18.839 161.312 19H154.47C154.336 18.839 154.228 18.6445 154.148 18.4164C154.067 18.1883 154.027 17.9535 154.027 17.712C155.543 17.712 156.301 17.3498 156.301 16.6253V6.54293H155.858C154.45 6.54293 153.638 7.87114 153.423 10.5276C152.484 10.4873 151.88 10.4135 151.612 10.3062C151.612 9.51465 151.672 8.50171 151.793 7.26741C151.914 6.03311 152.082 5.18117 152.296 4.7116C152.913 4.7116 153.464 4.79209 153.947 4.95309H161.795C162.305 4.79209 162.855 4.7116 163.445 4.7116ZM172.294 8.07239C172.898 8.07239 173.34 8.22668 173.622 8.53525C173.904 8.84383 174.045 9.26644 174.045 9.8031C174.045 10.38 173.891 10.8496 173.582 11.2118C173.287 11.5741 172.884 11.7552 172.374 11.7552C171.932 11.7552 171.569 11.6277 171.288 11.3728C171.019 11.1179 170.885 10.816 170.885 10.4672C170.885 10.2525 170.905 10.0848 170.946 9.96409C170.463 10.0848 170.053 10.2928 169.718 10.588V16.6253C169.718 16.9607 169.765 17.2156 169.859 17.39C169.953 17.5645 170.134 17.6986 170.402 17.7925C170.684 17.873 171.1 17.9133 171.65 17.9133C171.65 18.1548 171.623 18.3627 171.569 18.5371C171.516 18.6981 171.415 18.8524 171.268 19H165.894C165.586 18.6914 165.432 18.3292 165.432 17.9133C165.821 17.9133 166.096 17.8328 166.257 17.6718C166.431 17.4974 166.518 17.2089 166.518 16.8064V10.9904C166.518 10.6282 166.418 10.3733 166.216 10.2257C166.029 10.0781 165.686 10.0043 165.19 10.0043V9.09874C165.633 8.84383 166.216 8.62246 166.941 8.43463C167.679 8.23339 168.249 8.13276 168.651 8.13276C168.973 8.13276 169.202 8.2468 169.336 8.47488C169.47 8.70296 169.537 9.15911 169.537 9.84335C169.778 9.38719 170.161 8.97799 170.684 8.61575C171.207 8.25351 171.744 8.07239 172.294 8.07239ZM184.856 16.6454C184.856 16.9674 184.936 17.2358 185.097 17.4504C185.272 17.6651 185.513 17.7858 185.822 17.8127V18.3761C185.607 18.6176 185.272 18.8055 184.815 18.9396C184.373 19.0738 183.923 19.1409 183.467 19.1409C183.011 19.1409 182.622 19.0201 182.3 18.7786C181.978 18.5371 181.763 18.2017 181.656 17.7724C181.012 18.6847 180.093 19.1409 178.899 19.1409C177.96 19.1409 177.228 18.8524 176.705 18.2755C176.182 17.6986 175.92 16.9205 175.92 15.9411V10.4068C175.92 10.1788 175.833 10.0178 175.659 9.92384C175.498 9.82993 175.256 9.78297 174.934 9.78297V8.89749C175.135 8.7365 175.518 8.5755 176.081 8.41451C176.658 8.25351 177.269 8.17301 177.913 8.17301C178.288 8.17301 178.563 8.19984 178.738 8.25351C178.912 8.29376 179.033 8.38767 179.1 8.53525C179.167 8.68283 179.201 8.91762 179.201 9.23961V16.0014C179.201 16.4174 179.268 16.7326 179.402 16.9473C179.549 17.1485 179.784 17.2492 180.106 17.2492C180.375 17.2492 180.636 17.1687 180.891 17.0077C181.159 16.8333 181.387 16.6253 181.575 16.3838V10.4068C181.575 9.99093 181.2 9.78297 180.448 9.78297V8.89749C180.663 8.72308 181.052 8.56209 181.616 8.41451C182.192 8.25351 182.823 8.17301 183.507 8.17301C184.057 8.17301 184.42 8.24009 184.594 8.37426C184.768 8.495 184.856 8.78346 184.856 9.23961V16.6454ZM191.321 19.2012C190.664 19.2012 190.006 19.1073 189.349 18.9195C188.705 18.7183 188.175 18.4365 187.759 18.0743C187.343 17.712 187.135 17.2827 187.135 16.7863C187.135 16.3167 187.269 15.9411 187.538 15.6593C187.806 15.3642 188.148 15.2166 188.564 15.2166C188.94 15.2166 189.255 15.3373 189.51 15.5788C189.778 15.8203 189.912 16.1356 189.912 16.5247C189.912 16.6991 189.885 16.8534 189.832 16.9875C189.791 17.1083 189.711 17.2425 189.59 17.39C189.698 17.4974 189.899 17.5846 190.194 17.6517C190.489 17.7053 190.804 17.7322 191.14 17.7322C191.596 17.7322 191.951 17.6517 192.206 17.4907C192.475 17.3162 192.609 17.0949 192.609 16.8266C192.609 16.4643 192.441 16.1557 192.106 15.9008C191.77 15.6325 191.234 15.3038 190.496 14.9147C189.745 14.5122 189.174 14.1835 188.785 13.9286C188.396 13.6603 188.047 13.3048 187.739 12.862C187.444 12.4059 187.296 11.8491 187.296 11.1917C187.296 10.2794 187.672 9.54148 188.423 8.97799C189.174 8.41451 190.214 8.13276 191.542 8.13276C192.844 8.13276 193.81 8.36755 194.44 8.83712C195.084 9.29328 195.406 9.84335 195.406 10.4873C195.406 10.8898 195.272 11.2185 195.004 11.4734C194.749 11.7283 194.434 11.8558 194.058 11.8558C193.709 11.8558 193.407 11.7552 193.152 11.5539C192.911 11.3393 192.79 11.0642 192.79 10.7288C192.79 10.5544 192.817 10.38 192.871 10.2056C192.924 10.0178 192.998 9.86347 193.092 9.74272C192.824 9.52806 192.421 9.42073 191.884 9.42073C191.455 9.42073 191.12 9.52135 190.878 9.7226C190.637 9.92384 190.516 10.1788 190.516 10.4873C190.516 10.9032 190.684 11.2454 191.019 11.5137C191.354 11.782 191.891 12.104 192.629 12.4797C193.327 12.8419 193.877 13.1572 194.279 13.4255C194.682 13.6938 195.031 14.0494 195.326 14.4921C195.621 14.9348 195.768 15.4782 195.768 16.1222C195.768 17.1687 195.339 17.9468 194.48 18.4566C193.635 18.953 192.582 19.2012 191.321 19.2012ZM201.476 10.1251V15.8002C201.476 16.2027 201.556 16.4844 201.717 16.6454C201.878 16.793 202.107 16.8668 202.402 16.8668C202.657 16.8668 202.925 16.7997 203.207 16.6656C203.488 16.5314 203.71 16.3637 203.871 16.1624C204.005 16.2698 204.099 16.4308 204.153 16.6454C204.22 16.8601 204.253 17.0546 204.253 17.229C204.253 17.5376 204.146 17.8395 203.931 18.1346C203.716 18.4298 203.394 18.6713 202.965 18.8591C202.536 19.047 202.019 19.1409 201.416 19.1409C200.476 19.1409 199.718 18.8725 199.141 18.3359C198.578 17.7992 198.296 16.9071 198.296 15.6593V10.1251H197.028V8.89749C197.377 8.84383 197.713 8.62246 198.035 8.23339C198.37 7.8309 198.652 7.33449 198.88 6.74417C199.121 6.14044 199.276 5.54341 199.343 4.95309C199.584 4.91284 199.806 4.89272 200.007 4.89272C200.49 4.89272 200.845 5.03359 201.073 5.31533C201.315 5.58366 201.436 5.88553 201.436 6.22093V8.33401H203.77C203.77 8.7365 203.75 9.08532 203.71 9.38048C203.67 9.66223 203.582 9.91043 203.448 10.1251H201.476ZM93.7359 28.7116C93.9506 29.1812 94.1183 30.0331 94.239 31.2674C94.3598 32.5017 94.4201 33.5146 94.4201 34.3062C94.2457 34.3733 93.9707 34.427 93.595 34.4672C93.2328 34.5075 92.9041 34.5276 92.6089 34.5276C92.5284 33.4543 92.3943 32.6292 92.2064 32.0523C92.032 31.4754 91.7905 31.0796 91.482 30.8649C91.1734 30.6503 90.7709 30.5429 90.2745 30.5429H89.9324V40.6253C89.9324 41.001 90.1068 41.276 90.4556 41.4504C90.8044 41.6248 91.3411 41.712 92.0656 41.712C92.0656 41.9535 92.0253 42.1883 91.9448 42.4164C91.8643 42.6445 91.7503 42.839 91.6027 43H84.7604C84.6262 42.839 84.5189 42.6445 84.4384 42.4164C84.3579 42.1883 84.3176 41.9535 84.3176 41.712C85.8337 41.712 86.5917 41.3498 86.5917 40.6253V30.5429H86.149C84.7403 30.5429 83.9286 31.8711 83.7139 34.5276C82.7748 34.4873 82.171 34.4135 81.9027 34.3062C81.9027 33.5146 81.9631 32.5017 82.0838 31.2674C82.2046 30.0331 82.3723 29.1812 82.5869 28.7116C83.2041 28.7116 83.7542 28.7921 84.2371 28.9531H92.0857C92.5955 28.7921 93.1456 28.7116 93.7359 28.7116ZM100.813 40.9473C101.658 40.9473 102.443 40.679 103.167 40.1423C103.275 40.2496 103.369 40.4106 103.449 40.6253C103.53 40.84 103.57 41.0278 103.57 41.1888C103.57 41.4303 103.409 41.712 103.087 42.034C102.765 42.3426 102.315 42.6109 101.739 42.839C101.175 43.0671 100.538 43.1811 99.8267 43.1811C98.8339 43.1811 97.9618 42.9665 97.2105 42.5371C96.4726 42.1078 95.9024 41.484 95.4999 40.6656C95.0975 39.8472 94.8962 38.8812 94.8962 37.7676C94.8962 36.6272 95.1109 35.6277 95.5402 34.7691C95.9829 33.9104 96.5867 33.253 97.3514 32.7969C98.1161 32.3273 98.9815 32.0925 99.9475 32.0925C101.168 32.0925 102.141 32.448 102.866 33.1591C103.59 33.8702 103.952 34.8563 103.952 36.1174C103.952 36.7077 103.858 37.1773 103.67 37.5261C103.483 37.8615 103.147 38.0292 102.664 38.0292H98.3174C98.3979 39.9746 99.2297 40.9473 100.813 40.9473ZM99.8267 33.4811C99.4108 33.4811 99.062 33.7159 98.7802 34.1855C98.4985 34.6416 98.3442 35.4131 98.3174 36.4998H100.35C100.565 36.4998 100.705 36.426 100.773 36.2784C100.84 36.1308 100.873 35.9028 100.873 35.5942C100.873 34.8026 100.779 34.2525 100.591 33.944C100.404 33.6354 100.149 33.4811 99.8267 33.4811ZM113.571 40.4442C113.678 40.5649 113.765 40.7259 113.832 40.9272C113.913 41.1284 113.953 41.3028 113.953 41.4504C113.953 41.7456 113.799 42.034 113.49 42.3158C113.182 42.5975 112.766 42.8323 112.243 43.0201C111.733 43.208 111.176 43.3019 110.572 43.3019C109.593 43.3019 108.728 43.0805 107.976 42.6378C107.225 42.195 106.641 41.5577 106.225 40.7259C105.809 39.8941 105.602 38.908 105.602 37.7676C105.602 36.6004 105.823 35.5875 106.266 34.7288C106.722 33.8702 107.346 33.2128 108.137 32.7566C108.942 32.3005 109.841 32.0724 110.834 32.0724C111.827 32.0724 112.598 32.3139 113.148 32.7969C113.712 33.2664 113.993 33.8702 113.993 34.6081C113.993 35.2386 113.832 35.7351 113.51 36.0973C113.188 36.4461 112.773 36.6205 112.263 36.6205C111.847 36.6205 111.498 36.4662 111.216 36.1577C110.935 35.8491 110.794 35.4734 110.794 35.0307C110.794 34.7355 110.847 34.4873 110.955 34.2861C111.062 34.0848 111.21 33.9037 111.397 33.7427C111.183 33.622 110.988 33.5616 110.814 33.5616C110.358 33.5616 109.955 33.8366 109.606 34.3867C109.257 34.9234 109.083 35.8155 109.083 37.0633C109.083 38.4854 109.291 39.5118 109.707 40.1423C110.123 40.7595 110.733 41.068 111.538 41.068C111.914 41.068 112.283 41.0144 112.645 40.9071C113.021 40.7997 113.329 40.6454 113.571 40.4442ZM126.71 42.4566C126.227 42.8994 125.49 43.1207 124.497 43.1207C123.142 43.1207 122.464 42.6981 122.464 41.8529V35.3728C122.464 34.9435 122.343 34.6148 122.102 34.3867C121.874 34.1452 121.559 34.0245 121.156 34.0245C120.888 34.0245 120.606 34.1117 120.311 34.2861C120.029 34.4605 119.821 34.6819 119.687 34.9502V40.8266C119.687 41.2156 119.767 41.4974 119.928 41.6718C120.103 41.8328 120.391 41.9133 120.794 41.9133C120.794 42.3292 120.639 42.6914 120.331 43H115.883C115.575 42.6914 115.421 42.3292 115.421 41.9133C115.823 41.9133 116.105 41.8328 116.266 41.6718C116.44 41.4974 116.527 41.2156 116.527 40.8266V29.9191C116.527 29.5837 116.433 29.3355 116.246 29.1745C116.058 29.0135 115.702 28.933 115.179 28.933V28.1079C115.662 27.8529 116.272 27.6316 117.01 27.4438C117.762 27.2425 118.365 27.1419 118.822 27.1419C119.13 27.1419 119.352 27.2157 119.486 27.3633C119.62 27.4974 119.687 27.7322 119.687 28.0676V32.0321L119.647 33.6421C120.009 33.1725 120.465 32.7902 121.015 32.495C121.579 32.1998 122.196 32.0523 122.867 32.0523C123.806 32.0523 124.517 32.3072 125 32.817C125.483 33.3134 125.724 34.0513 125.724 35.0307V40.6656C125.724 41.001 125.805 41.2693 125.966 41.4705C126.14 41.6718 126.382 41.8059 126.69 41.873L126.71 42.4566ZM139.601 42.4566C139.4 42.6579 139.038 42.8189 138.515 42.9396C138.005 43.0604 137.515 43.1207 137.046 43.1207C136.469 43.1207 136.039 43.0134 135.758 42.7988C135.489 42.5841 135.355 42.242 135.355 41.7724V35.4936C135.355 34.9703 135.241 34.5947 135.013 34.3666C134.785 34.1385 134.483 34.0245 134.107 34.0245C133.557 34.0245 133.094 34.2458 132.719 34.6886V40.8266C132.719 41.2156 132.799 41.4974 132.96 41.6718C133.135 41.8462 133.423 41.9334 133.826 41.9334C133.826 42.3359 133.671 42.6914 133.363 43H128.795C128.473 42.678 128.312 42.3225 128.312 41.9334C128.714 41.9334 129.002 41.8462 129.177 41.6718C129.351 41.4974 129.439 41.2156 129.439 40.8266V34.9502C129.439 34.588 129.338 34.333 129.137 34.1855C128.935 34.0245 128.587 33.944 128.09 33.944V33.0384C128.52 32.7969 129.123 32.5755 129.901 32.3743C130.693 32.173 131.29 32.0724 131.692 32.0724C132.001 32.0724 132.236 32.173 132.397 32.3743C132.571 32.5621 132.672 32.9243 132.699 33.461C133.048 33.0317 133.484 32.6962 134.007 32.4548C134.53 32.1998 135.12 32.0724 135.778 32.0724C136.744 32.0724 137.455 32.3206 137.911 32.817C138.381 33.3 138.615 34.0983 138.615 35.2118V40.7058C138.615 41.3632 138.937 41.7523 139.581 41.873L139.601 42.4566ZM145.987 43.2616C144.512 43.2616 143.331 42.7988 142.446 41.873C141.56 40.9339 141.117 39.599 141.117 37.8682C141.117 36.6339 141.325 35.5808 141.741 34.7087C142.171 33.8366 142.768 33.1792 143.532 32.7365C144.297 32.2938 145.182 32.0724 146.189 32.0724C147.155 32.0724 148 32.2871 148.724 32.7164C149.462 33.1323 150.033 33.7494 150.435 34.5678C150.851 35.3862 151.059 36.379 151.059 37.5463C151.059 38.7671 150.844 39.8069 150.415 40.6656C149.999 41.5242 149.409 42.1749 148.644 42.6176C147.879 43.047 146.994 43.2616 145.987 43.2616ZM146.148 41.8127C146.618 41.8127 146.967 41.5443 147.195 41.0077C147.423 40.471 147.537 39.4782 147.537 38.0292C147.537 36.8084 147.477 35.8692 147.356 35.2118C147.235 34.5544 147.067 34.105 146.853 33.8635C146.638 33.622 146.363 33.5012 146.028 33.5012C145.558 33.5012 145.203 33.7696 144.961 34.3062C144.733 34.8429 144.619 35.8491 144.619 37.3249C144.619 38.5324 144.679 39.4648 144.8 40.1222C144.921 40.7662 145.089 41.2089 145.303 41.4504C145.531 41.6919 145.813 41.8127 146.148 41.8127ZM153.874 30.1203C153.874 29.7849 153.774 29.5367 153.572 29.3757C153.385 29.2013 153.029 29.1141 152.506 29.1141V28.3091C152.989 28.0408 153.599 27.8127 154.337 27.6249C155.075 27.437 155.672 27.3431 156.128 27.3431C156.45 27.3431 156.678 27.4102 156.812 27.5444C156.947 27.6785 157.014 27.9133 157.014 28.2487V40.8064C157.014 41.2223 157.094 41.5108 157.255 41.6718C157.43 41.8328 157.718 41.9133 158.121 41.9133C158.121 42.2889 157.96 42.6512 157.638 43H153.23C152.922 42.6646 152.767 42.3024 152.767 41.9133C153.156 41.9133 153.438 41.8328 153.613 41.6718C153.787 41.4974 153.874 41.2089 153.874 40.8064V30.1203ZM164.214 43.2616C162.739 43.2616 161.558 42.7988 160.672 41.873C159.787 40.9339 159.344 39.599 159.344 37.8682C159.344 36.6339 159.552 35.5808 159.968 34.7087C160.397 33.8366 160.994 33.1792 161.759 32.7365C162.524 32.2938 163.409 32.0724 164.416 32.0724C165.382 32.0724 166.227 32.2871 166.951 32.7164C167.689 33.1323 168.259 33.7494 168.662 34.5678C169.078 35.3862 169.286 36.379 169.286 37.5463C169.286 38.7671 169.071 39.8069 168.642 40.6656C168.226 41.5242 167.635 42.1749 166.871 42.6176C166.106 43.047 165.221 43.2616 164.214 43.2616ZM164.375 41.8127C164.845 41.8127 165.194 41.5443 165.422 41.0077C165.65 40.471 165.764 39.4782 165.764 38.0292C165.764 36.8084 165.704 35.8692 165.583 35.2118C165.462 34.5544 165.294 34.105 165.08 33.8635C164.865 33.622 164.59 33.5012 164.255 33.5012C163.785 33.5012 163.429 33.7696 163.188 34.3062C162.96 34.8429 162.846 35.8491 162.846 37.3249C162.846 38.5324 162.906 39.4648 163.027 40.1222C163.148 40.7662 163.315 41.2089 163.53 41.4504C163.758 41.6919 164.04 41.8127 164.375 41.8127ZM175.844 40.6052C177.575 40.7259 178.863 41.0412 179.708 41.551C180.567 42.0474 180.996 42.7853 180.996 43.7647C180.996 44.449 180.741 45.0728 180.231 45.6363C179.722 46.2132 179.044 46.6627 178.199 46.9847C177.367 47.3201 176.475 47.4878 175.522 47.4878C173.926 47.4878 172.732 47.1993 171.94 46.6224C171.149 46.0589 170.753 45.3009 170.753 44.3483C170.753 43.8519 170.914 43.4025 171.236 43C171.571 42.5841 172.047 42.2755 172.665 42.0743C172.396 41.8864 172.215 41.6651 172.121 41.4102C172.041 41.1553 172 40.84 172 40.4643C172 40.2228 172.094 39.9813 172.282 39.7398C172.47 39.4849 172.732 39.2971 173.067 39.1763C172.436 38.8409 171.94 38.3781 171.578 37.7878C171.229 37.1974 171.055 36.5602 171.055 35.8759C171.055 35.1783 171.222 34.5544 171.558 34.0043C171.907 33.4409 172.41 32.9981 173.067 32.6761C173.738 32.3407 174.55 32.173 175.502 32.173H175.522C176.005 32.173 176.421 32.2066 176.77 32.2736C178.031 32.2736 178.896 32.2602 179.366 32.2334C179.849 32.1931 180.312 32.1395 180.755 32.0724C180.889 32.0724 180.989 32.1663 181.056 32.3541C181.137 32.5285 181.177 32.7164 181.177 32.9176C181.177 33.5214 180.916 33.8232 180.392 33.8232C180.272 33.8232 179.903 33.7025 179.286 33.461C179.178 33.4073 179.017 33.3402 178.803 33.2597C179.245 33.622 179.587 34.0379 179.829 34.5075C180.07 34.9636 180.191 35.4064 180.191 35.8357C180.191 37.0834 179.762 38.0427 178.903 38.7135C178.058 39.3709 176.871 39.6996 175.341 39.6996C174.965 39.6996 174.543 39.6526 174.073 39.5587V39.6191C174.073 39.9411 174.201 40.1759 174.456 40.3234C174.711 40.4576 175.173 40.5515 175.844 40.6052ZM175.683 33.5012C175.254 33.5012 174.945 33.7226 174.758 34.1653C174.583 34.6081 174.496 35.2521 174.496 36.0973C174.496 37.6133 174.892 38.3714 175.683 38.3714C176.113 38.3714 176.421 38.1433 176.609 37.6871C176.797 37.231 176.891 36.5333 176.891 35.5942C176.891 34.8563 176.79 34.3263 176.589 34.0043C176.388 33.6689 176.086 33.5012 175.683 33.5012ZM176.186 45.8376C176.804 45.8376 177.26 45.69 177.555 45.3948C177.85 45.0997 177.998 44.7307 177.998 44.288C177.998 43.8855 177.749 43.5836 177.253 43.3824C176.77 43.1945 176.005 43.0134 174.959 42.839L174.053 42.6579C173.879 42.953 173.792 43.3421 173.792 43.8251C173.792 44.4423 173.979 44.932 174.355 45.2942C174.731 45.6564 175.341 45.8376 176.186 45.8376ZM186.818 28.772C186.818 29.3489 186.637 29.8117 186.275 30.1606C185.926 30.496 185.456 30.6637 184.866 30.6637C184.289 30.6637 183.826 30.496 183.477 30.1606C183.142 29.8117 182.974 29.3489 182.974 28.772C182.974 28.2085 183.149 27.7523 183.498 27.4035C183.86 27.0547 184.329 26.8803 184.906 26.8803C185.483 26.8803 185.946 27.0547 186.295 27.4035C186.644 27.7523 186.818 28.2085 186.818 28.772ZM186.436 40.8266C186.436 41.2156 186.53 41.4974 186.717 41.6718C186.919 41.8328 187.221 41.9133 187.623 41.9133C187.623 42.3292 187.469 42.6914 187.16 43H182.612C182.303 42.6914 182.149 42.3292 182.149 41.9133C182.552 41.9133 182.84 41.8328 183.015 41.6718C183.202 41.4974 183.296 41.2089 183.296 40.8064V34.9703C183.296 34.5947 183.202 34.3263 183.015 34.1653C182.84 34.0043 182.491 33.9238 181.968 33.9238V33.0384C182.29 32.8371 182.833 32.6292 183.598 32.4145C184.376 32.1864 185.034 32.0724 185.57 32.0724C185.879 32.0724 186.1 32.1462 186.234 32.2938C186.369 32.4279 186.436 32.6627 186.436 32.9981V40.8266ZM194.979 40.9473C195.824 40.9473 196.609 40.679 197.334 40.1423C197.441 40.2496 197.535 40.4106 197.615 40.6253C197.696 40.84 197.736 41.0278 197.736 41.1888C197.736 41.4303 197.575 41.712 197.253 42.034C196.931 42.3426 196.482 42.6109 195.905 42.839C195.341 43.0671 194.704 43.1811 193.993 43.1811C193 43.1811 192.128 42.9665 191.377 42.5371C190.639 42.1078 190.069 41.484 189.666 40.6656C189.264 39.8472 189.062 38.8812 189.062 37.7676C189.062 36.6272 189.277 35.6277 189.706 34.7691C190.149 33.9104 190.753 33.253 191.518 32.7969C192.282 32.3273 193.148 32.0925 194.114 32.0925C195.335 32.0925 196.307 32.448 197.032 33.1591C197.756 33.8702 198.118 34.8563 198.118 36.1174C198.118 36.7077 198.025 37.1773 197.837 37.5261C197.649 37.8615 197.313 38.0292 196.83 38.0292H192.484C192.564 39.9746 193.396 40.9473 194.979 40.9473ZM193.993 33.4811C193.577 33.4811 193.228 33.7159 192.946 34.1855C192.665 34.6416 192.51 35.4131 192.484 36.4998H194.516C194.731 36.4998 194.872 36.426 194.939 36.2784C195.006 36.1308 195.039 35.9028 195.039 35.5942C195.039 34.8026 194.945 34.2525 194.758 33.944C194.57 33.6354 194.315 33.4811 193.993 33.4811ZM203.893 43.2012C203.236 43.2012 202.578 43.1073 201.921 42.9195C201.277 42.7183 200.747 42.4365 200.331 42.0743C199.915 41.712 199.707 41.2827 199.707 40.7863C199.707 40.3167 199.842 39.9411 200.11 39.6593C200.378 39.3642 200.72 39.2166 201.136 39.2166C201.512 39.2166 201.827 39.3373 202.082 39.5788C202.35 39.8203 202.485 40.1356 202.485 40.5247C202.485 40.6991 202.458 40.8534 202.404 40.9875C202.364 41.1083 202.283 41.2425 202.163 41.39C202.27 41.4974 202.471 41.5846 202.766 41.6517C203.061 41.7053 203.377 41.7322 203.712 41.7322C204.168 41.7322 204.524 41.6517 204.779 41.4907C205.047 41.3162 205.181 41.0949 205.181 40.8266C205.181 40.4643 205.014 40.1557 204.678 39.9008C204.343 39.6325 203.806 39.3038 203.068 38.9147C202.317 38.5122 201.747 38.1835 201.358 37.9286C200.968 37.6603 200.62 37.3048 200.311 36.862C200.016 36.4059 199.868 35.8491 199.868 35.1917C199.868 34.2794 200.244 33.5415 200.995 32.978C201.747 32.4145 202.786 32.1328 204.115 32.1328C205.416 32.1328 206.382 32.3675 207.013 32.8371C207.657 33.2933 207.979 33.8433 207.979 34.4873C207.979 34.8898 207.844 35.2185 207.576 35.4734C207.321 35.7283 207.006 35.8558 206.63 35.8558C206.281 35.8558 205.979 35.7552 205.725 35.5539C205.483 35.3393 205.362 35.0642 205.362 34.7288C205.362 34.5544 205.389 34.38 205.443 34.2056C205.496 34.0178 205.57 33.8635 205.664 33.7427C205.396 33.5281 204.993 33.4207 204.457 33.4207C204.027 33.4207 203.692 33.5214 203.45 33.7226C203.209 33.9238 203.088 34.1788 203.088 34.4873C203.088 34.9032 203.256 35.2454 203.591 35.5137C203.927 35.782 204.463 36.104 205.201 36.4797C205.899 36.8419 206.449 37.1572 206.852 37.4255C207.254 37.6938 207.603 38.0494 207.898 38.4921C208.193 38.9348 208.341 39.4782 208.341 40.1222C208.341 41.1687 207.911 41.9468 207.053 42.4566C206.208 42.953 205.154 43.2012 203.893 43.2012Z" fill="white"/>
<path d="M83.4568 55.4334L80.7268 51.2334H82.0568L84.1868 54.5834H83.5668L85.6968 51.2334H87.0068L84.2568 55.4334H83.4568ZM83.2968 58.2334V54.7134H84.4468V58.2334H83.2968ZM88.5707 58.3334C88.1041 58.3334 87.6807 58.2234 87.3007 58.0034C86.9207 57.7767 86.6174 57.4734 86.3907 57.0934C86.1707 56.7134 86.0607 56.2901 86.0607 55.8234C86.0607 55.3567 86.1707 54.9367 86.3907 54.5634C86.6174 54.1901 86.9207 53.8934 87.3007 53.6734C87.6807 53.4467 88.1041 53.3334 88.5707 53.3334C89.0441 53.3334 89.4707 53.4434 89.8507 53.6634C90.2307 53.8834 90.5307 54.1834 90.7507 54.5634C90.9774 54.9367 91.0907 55.3567 91.0907 55.8234C91.0907 56.2901 90.9774 56.7134 90.7507 57.0934C90.5307 57.4734 90.2307 57.7767 89.8507 58.0034C89.4707 58.2234 89.0441 58.3334 88.5707 58.3334ZM88.5707 57.2734C88.8441 57.2734 89.0841 57.2134 89.2907 57.0934C89.5041 56.9667 89.6674 56.7934 89.7807 56.5734C89.9007 56.3534 89.9607 56.1034 89.9607 55.8234C89.9607 55.5434 89.9007 55.2967 89.7807 55.0834C89.6607 54.8701 89.4974 54.7034 89.2907 54.5834C89.0841 54.4567 88.8441 54.3934 88.5707 54.3934C88.3041 54.3934 88.0641 54.4567 87.8507 54.5834C87.6441 54.7034 87.4807 54.8701 87.3607 55.0834C87.2474 55.2967 87.1907 55.5434 87.1907 55.8234C87.1907 56.1034 87.2474 56.3534 87.3607 56.5734C87.4807 56.7934 87.6441 56.9667 87.8507 57.0934C88.0641 57.2134 88.3041 57.2734 88.5707 57.2734ZM93.9755 58.3334C93.5688 58.3334 93.2055 58.2434 92.8855 58.0634C92.5722 57.8834 92.3255 57.6367 92.1455 57.3234C91.9722 57.0034 91.8855 56.6367 91.8855 56.2234V53.4334H92.9855V56.1734C92.9855 56.4067 93.0222 56.6067 93.0955 56.7734C93.1755 56.9334 93.2888 57.0567 93.4355 57.1434C93.5888 57.2301 93.7688 57.2734 93.9755 57.2734C94.2955 57.2734 94.5388 57.1801 94.7055 56.9934C94.8788 56.8001 94.9655 56.5267 94.9655 56.1734V53.4334H96.0655V56.2234C96.0655 56.6434 95.9755 57.0134 95.7955 57.3334C95.6222 57.6467 95.3788 57.8934 95.0655 58.0734C94.7522 58.2467 94.3888 58.3334 93.9755 58.3334ZM97.1715 58.2334V53.4334H98.2715V58.2334H97.1715ZM98.2715 55.5634L97.8915 55.3734C97.8915 54.7667 98.0249 54.2767 98.2915 53.9034C98.5649 53.5234 98.9749 53.3334 99.5215 53.3334C99.7615 53.3334 99.9782 53.3767 100.172 53.4634C100.365 53.5501 100.545 53.6901 100.712 53.8834L99.9915 54.6234C99.9049 54.5301 99.8082 54.4634 99.7015 54.4234C99.5949 54.3834 99.4715 54.3634 99.3315 54.3634C99.0249 54.3634 98.7715 54.4601 98.5715 54.6534C98.3715 54.8467 98.2715 55.1501 98.2715 55.5634ZM103.572 58.2334V51.2334H104.722V58.2334H103.572ZM108.022 58.2334V51.2334H109.172V58.2334H108.022ZM104.362 55.1334V54.0834H108.272V55.1334H104.362ZM112.771 58.3334C112.291 58.3334 111.857 58.2267 111.471 58.0134C111.091 57.7934 110.787 57.4934 110.561 57.1134C110.341 56.7334 110.231 56.3067 110.231 55.8334C110.231 55.3601 110.341 54.9367 110.561 54.5634C110.781 54.1834 111.077 53.8834 111.451 53.6634C111.831 53.4434 112.251 53.3334 112.711 53.3334C113.157 53.3334 113.551 53.4367 113.891 53.6434C114.237 53.8501 114.507 54.1334 114.701 54.4934C114.901 54.8534 115.001 55.2634 115.001 55.7234C115.001 55.8034 114.994 55.8867 114.981 55.9734C114.974 56.0534 114.961 56.1434 114.941 56.2434H111.001V55.3434H114.371L113.961 55.7034C113.947 55.4101 113.891 55.1634 113.791 54.9634C113.691 54.7634 113.547 54.6101 113.361 54.5034C113.181 54.3967 112.957 54.3434 112.691 54.3434C112.411 54.3434 112.167 54.4034 111.961 54.5234C111.754 54.6434 111.594 54.8134 111.481 55.0334C111.367 55.2467 111.311 55.5034 111.311 55.8034C111.311 56.1034 111.371 56.3667 111.491 56.5934C111.611 56.8201 111.781 56.9967 112.001 57.1234C112.221 57.2434 112.474 57.3034 112.761 57.3034C113.007 57.3034 113.234 57.2601 113.441 57.1734C113.654 57.0867 113.834 56.9601 113.981 56.7934L114.681 57.5034C114.447 57.7767 114.164 57.9834 113.831 58.1234C113.497 58.2634 113.144 58.3334 112.771 58.3334ZM117.892 58.3334C117.459 58.3334 117.066 58.2234 116.712 58.0034C116.366 57.7834 116.089 57.4867 115.882 57.1134C115.682 56.7334 115.582 56.3101 115.582 55.8434C115.582 55.3701 115.682 54.9467 115.882 54.5734C116.089 54.1934 116.366 53.8934 116.712 53.6734C117.066 53.4467 117.459 53.3334 117.892 53.3334C118.259 53.3334 118.582 53.4134 118.862 53.5734C119.149 53.7267 119.376 53.9401 119.542 54.2134C119.709 54.4867 119.792 54.7967 119.792 55.1434V56.5234C119.792 56.8701 119.709 57.1801 119.542 57.4534C119.382 57.7267 119.159 57.9434 118.872 58.1034C118.586 58.2567 118.259 58.3334 117.892 58.3334ZM118.072 57.2934C118.479 57.2934 118.806 57.1567 119.052 56.8834C119.306 56.6101 119.432 56.2601 119.432 55.8334C119.432 55.5467 119.376 55.2934 119.262 55.0734C119.149 54.8534 118.989 54.6834 118.782 54.5634C118.582 54.4367 118.346 54.3734 118.072 54.3734C117.806 54.3734 117.569 54.4367 117.362 54.5634C117.162 54.6834 117.002 54.8534 116.882 55.0734C116.769 55.2934 116.712 55.5467 116.712 55.8334C116.712 56.1201 116.769 56.3734 116.882 56.5934C117.002 56.8134 117.162 56.9867 117.362 57.1134C117.569 57.2334 117.806 57.2934 118.072 57.2934ZM119.362 58.2334V56.9434L119.552 55.7734L119.362 54.6134V53.4334H120.462V58.2334H119.362ZM121.683 58.2334V51.0334H122.783V58.2334H121.683ZM124.737 58.2334V51.4334H125.837V58.2334H124.737ZM123.587 54.4334V53.4334H126.987V54.4334H123.587ZM131.077 58.2334V55.4634C131.077 55.1434 130.973 54.8801 130.767 54.6734C130.567 54.4667 130.307 54.3634 129.987 54.3634C129.773 54.3634 129.583 54.4101 129.417 54.5034C129.25 54.5967 129.12 54.7267 129.027 54.8934C128.933 55.0601 128.887 55.2501 128.887 55.4634L128.457 55.2234C128.457 54.8567 128.537 54.5334 128.697 54.2534C128.857 53.9667 129.077 53.7434 129.357 53.5834C129.643 53.4167 129.963 53.3334 130.317 53.3334C130.677 53.3334 130.997 53.4134 131.277 53.5734C131.557 53.7334 131.777 53.9567 131.937 54.2434C132.097 54.5234 132.177 54.8501 132.177 55.2234V58.2334H131.077ZM127.787 58.2334V51.0334H128.887V58.2334H127.787ZM138.627 58.3334C138.12 58.3334 137.65 58.2434 137.217 58.0634C136.79 57.8767 136.417 57.6201 136.097 57.2934C135.777 56.9601 135.53 56.5767 135.357 56.1434C135.183 55.7034 135.097 55.2334 135.097 54.7334C135.097 54.2334 135.183 53.7667 135.357 53.3334C135.53 52.8934 135.777 52.5101 136.097 52.1834C136.417 51.8567 136.79 51.6001 137.217 51.4134C137.65 51.2267 138.12 51.1334 138.627 51.1334C139.193 51.1334 139.683 51.2267 140.097 51.4134C140.51 51.6001 140.877 51.8534 141.197 52.1734L140.417 52.9534C140.21 52.7267 139.957 52.5501 139.657 52.4234C139.363 52.2967 139.02 52.2334 138.627 52.2334C138.28 52.2334 137.963 52.2934 137.677 52.4134C137.39 52.5334 137.14 52.7067 136.927 52.9334C136.72 53.1534 136.56 53.4167 136.447 53.7234C136.333 54.0301 136.277 54.3667 136.277 54.7334C136.277 55.1001 136.333 55.4367 136.447 55.7434C136.56 56.0501 136.72 56.3167 136.927 56.5434C137.14 56.7634 137.39 56.9334 137.677 57.0534C137.963 57.1734 138.28 57.2334 138.627 57.2334C139.053 57.2334 139.413 57.1701 139.707 57.0434C140.007 56.9101 140.26 56.7301 140.467 56.5034L141.247 57.2834C140.927 57.6101 140.55 57.8667 140.117 58.0534C139.683 58.2401 139.187 58.3334 138.627 58.3334ZM143.986 58.3334C143.553 58.3334 143.16 58.2234 142.806 58.0034C142.46 57.7834 142.183 57.4867 141.976 57.1134C141.776 56.7334 141.676 56.3101 141.676 55.8434C141.676 55.3701 141.776 54.9467 141.976 54.5734C142.183 54.1934 142.46 53.8934 142.806 53.6734C143.16 53.4467 143.553 53.3334 143.986 53.3334C144.353 53.3334 144.676 53.4134 144.956 53.5734C145.243 53.7267 145.47 53.9401 145.636 54.2134C145.803 54.4867 145.886 54.7967 145.886 55.1434V56.5234C145.886 56.8701 145.803 57.1801 145.636 57.4534C145.476 57.7267 145.253 57.9434 144.966 58.1034C144.68 58.2567 144.353 58.3334 143.986 58.3334ZM144.166 57.2934C144.573 57.2934 144.9 57.1567 145.146 56.8834C145.4 56.6101 145.526 56.2601 145.526 55.8334C145.526 55.5467 145.47 55.2934 145.356 55.0734C145.243 54.8534 145.083 54.6834 144.876 54.5634C144.676 54.4367 144.44 54.3734 144.166 54.3734C143.9 54.3734 143.663 54.4367 143.456 54.5634C143.256 54.6834 143.096 54.8534 142.976 55.0734C142.863 55.2934 142.806 55.5467 142.806 55.8334C142.806 56.1201 142.863 56.3734 142.976 56.5934C143.096 56.8134 143.256 56.9867 143.456 57.1134C143.663 57.2334 143.9 57.2934 144.166 57.2934ZM145.456 58.2334V56.9434L145.646 55.7734L145.456 54.6134V53.4334H146.556V58.2334H145.456ZM147.777 58.2334V53.4334H148.877V58.2334H147.777ZM148.877 55.5634L148.497 55.3734C148.497 54.7667 148.63 54.2767 148.897 53.9034C149.17 53.5234 149.58 53.3334 150.127 53.3334C150.367 53.3334 150.584 53.3767 150.777 53.4634C150.97 53.5501 151.15 53.6901 151.317 53.8834L150.597 54.6234C150.51 54.5301 150.414 54.4634 150.307 54.4234C150.2 54.3834 150.077 54.3634 149.937 54.3634C149.63 54.3634 149.377 54.4601 149.177 54.6534C148.977 54.8467 148.877 55.1501 148.877 55.5634ZM153.933 58.3334C153.453 58.3334 153.019 58.2267 152.633 58.0134C152.253 57.7934 151.949 57.4934 151.723 57.1134C151.503 56.7334 151.393 56.3067 151.393 55.8334C151.393 55.3601 151.503 54.9367 151.723 54.5634C151.943 54.1834 152.239 53.8834 152.613 53.6634C152.993 53.4434 153.413 53.3334 153.873 53.3334C154.319 53.3334 154.713 53.4367 155.053 53.6434C155.399 53.8501 155.669 54.1334 155.863 54.4934C156.063 54.8534 156.163 55.2634 156.163 55.7234C156.163 55.8034 156.156 55.8867 156.143 55.9734C156.136 56.0534 156.123 56.1434 156.103 56.2434H152.163V55.3434H155.533L155.123 55.7034C155.109 55.4101 155.053 55.1634 154.953 54.9634C154.853 54.7634 154.709 54.6101 154.523 54.5034C154.343 54.3967 154.119 54.3434 153.853 54.3434C153.573 54.3434 153.329 54.4034 153.123 54.5234C152.916 54.6434 152.756 54.8134 152.643 55.0334C152.529 55.2467 152.473 55.5034 152.473 55.8034C152.473 56.1034 152.533 56.3667 152.653 56.5934C152.773 56.8201 152.943 56.9967 153.163 57.1234C153.383 57.2434 153.636 57.3034 153.923 57.3034C154.169 57.3034 154.396 57.2601 154.603 57.1734C154.816 57.0867 154.996 56.9601 155.143 56.7934L155.843 57.5034C155.609 57.7767 155.326 57.9834 154.993 58.1234C154.659 58.2634 154.306 58.3334 153.933 58.3334ZM162.377 58.3334C161.87 58.3334 161.4 58.2434 160.967 58.0634C160.54 57.8767 160.167 57.6201 159.847 57.2934C159.527 56.9601 159.28 56.5767 159.107 56.1434C158.933 55.7034 158.847 55.2334 158.847 54.7334C158.847 54.2334 158.933 53.7667 159.107 53.3334C159.28 52.8934 159.527 52.5101 159.847 52.1834C160.167 51.8567 160.54 51.6001 160.967 51.4134C161.4 51.2267 161.87 51.1334 162.377 51.1334C162.943 51.1334 163.433 51.2267 163.847 51.4134C164.26 51.6001 164.627 51.8534 164.947 52.1734L164.167 52.9534C163.96 52.7267 163.707 52.5501 163.407 52.4234C163.113 52.2967 162.77 52.2334 162.377 52.2334C162.03 52.2334 161.713 52.2934 161.427 52.4134C161.14 52.5334 160.89 52.7067 160.677 52.9334C160.47 53.1534 160.31 53.4167 160.197 53.7234C160.083 54.0301 160.027 54.3667 160.027 54.7334C160.027 55.1001 160.083 55.4367 160.197 55.7434C160.31 56.0501 160.47 56.3167 160.677 56.5434C160.89 56.7634 161.14 56.9334 161.427 57.0534C161.713 57.1734 162.03 57.2334 162.377 57.2334C162.803 57.2334 163.163 57.1701 163.457 57.0434C163.757 56.9101 164.01 56.7301 164.217 56.5034L164.997 57.2834C164.677 57.6101 164.3 57.8667 163.867 58.0534C163.433 58.2401 162.937 58.3334 162.377 58.3334ZM167.926 58.3334C167.46 58.3334 167.036 58.2234 166.656 58.0034C166.276 57.7767 165.973 57.4734 165.746 57.0934C165.526 56.7134 165.416 56.2901 165.416 55.8234C165.416 55.3567 165.526 54.9367 165.746 54.5634C165.973 54.1901 166.276 53.8934 166.656 53.6734C167.036 53.4467 167.46 53.3334 167.926 53.3334C168.4 53.3334 168.826 53.4434 169.206 53.6634C169.586 53.8834 169.886 54.1834 170.106 54.5634C170.333 54.9367 170.446 55.3567 170.446 55.8234C170.446 56.2901 170.333 56.7134 170.106 57.0934C169.886 57.4734 169.586 57.7767 169.206 58.0034C168.826 58.2234 168.4 58.3334 167.926 58.3334ZM167.926 57.2734C168.2 57.2734 168.44 57.2134 168.646 57.0934C168.86 56.9667 169.023 56.7934 169.136 56.5734C169.256 56.3534 169.316 56.1034 169.316 55.8234C169.316 55.5434 169.256 55.2967 169.136 55.0834C169.016 54.8701 168.853 54.7034 168.646 54.5834C168.44 54.4567 168.2 54.3934 167.926 54.3934C167.66 54.3934 167.42 54.4567 167.206 54.5834C167 54.7034 166.836 54.8701 166.716 55.0834C166.603 55.2967 166.546 55.5434 166.546 55.8234C166.546 56.1034 166.603 56.3534 166.716 56.5734C166.836 56.7934 167 56.9667 167.206 57.0934C167.42 57.2134 167.66 57.2734 167.926 57.2734ZM171.361 58.2334V53.4334H172.461V58.2334H171.361ZM174.551 58.2334V55.3734C174.551 55.0534 174.451 54.8067 174.251 54.6334C174.051 54.4534 173.804 54.3634 173.511 54.3634C173.311 54.3634 173.131 54.4034 172.971 54.4834C172.818 54.5634 172.694 54.6801 172.601 54.8334C172.508 54.9801 172.461 55.1601 172.461 55.3734L172.031 55.1334C172.031 54.7667 172.111 54.4501 172.271 54.1834C172.431 53.9167 172.648 53.7101 172.921 53.5634C173.194 53.4101 173.501 53.3334 173.841 53.3334C174.181 53.3334 174.488 53.4067 174.761 53.5534C175.034 53.7001 175.251 53.9067 175.411 54.1734C175.571 54.4401 175.651 54.7601 175.651 55.1334V58.2334H174.551ZM177.741 58.2334V55.3734C177.741 55.0534 177.641 54.8067 177.441 54.6334C177.241 54.4534 176.994 54.3634 176.701 54.3634C176.508 54.3634 176.331 54.4034 176.171 54.4834C176.011 54.5634 175.884 54.6801 175.791 54.8334C175.698 54.9801 175.651 55.1601 175.651 55.3734L175.031 55.1334C175.064 54.7667 175.171 54.4501 175.351 54.1834C175.531 53.9167 175.761 53.7101 176.041 53.5634C176.328 53.4101 176.641 53.3334 176.981 53.3334C177.328 53.3334 177.641 53.4067 177.921 53.5534C178.201 53.7001 178.424 53.9067 178.591 54.1734C178.758 54.4401 178.841 54.7601 178.841 55.1334V58.2334H177.741ZM182.544 58.3334C182.178 58.3334 181.851 58.2567 181.564 58.1034C181.278 57.9434 181.051 57.7267 180.884 57.4534C180.724 57.1801 180.644 56.8701 180.644 56.5234V55.1434C180.644 54.7967 180.728 54.4867 180.894 54.2134C181.061 53.9401 181.288 53.7267 181.574 53.5734C181.861 53.4134 182.184 53.3334 182.544 53.3334C182.978 53.3334 183.368 53.4467 183.714 53.6734C184.068 53.8934 184.344 54.1934 184.544 54.5734C184.751 54.9467 184.854 55.3701 184.854 55.8434C184.854 56.3101 184.751 56.7334 184.544 57.1134C184.344 57.4867 184.068 57.7834 183.714 58.0034C183.368 58.2234 182.978 58.3334 182.544 58.3334ZM182.364 57.2934C182.631 57.2934 182.864 57.2334 183.064 57.1134C183.271 56.9867 183.431 56.8134 183.544 56.5934C183.664 56.3734 183.724 56.1201 183.724 55.8334C183.724 55.5467 183.664 55.2934 183.544 55.0734C183.431 54.8534 183.271 54.6834 183.064 54.5634C182.864 54.4367 182.631 54.3734 182.364 54.3734C182.098 54.3734 181.861 54.4367 181.654 54.5634C181.448 54.6834 181.288 54.8534 181.174 55.0734C181.061 55.2934 181.004 55.5467 181.004 55.8334C181.004 56.1201 181.061 56.3734 181.174 56.5934C181.288 56.8134 181.448 56.9867 181.654 57.1134C181.861 57.2334 182.098 57.2934 182.364 57.2934ZM179.974 60.2334V53.4334H181.074V54.7234L180.884 55.8934L181.074 57.0534V60.2334H179.974ZM187.785 58.3334C187.352 58.3334 186.958 58.2234 186.605 58.0034C186.258 57.7834 185.982 57.4867 185.775 57.1134C185.575 56.7334 185.475 56.3101 185.475 55.8434C185.475 55.3701 185.575 54.9467 185.775 54.5734C185.982 54.1934 186.258 53.8934 186.605 53.6734C186.958 53.4467 187.352 53.3334 187.785 53.3334C188.152 53.3334 188.475 53.4134 188.755 53.5734C189.042 53.7267 189.268 53.9401 189.435 54.2134C189.602 54.4867 189.685 54.7967 189.685 55.1434V56.5234C189.685 56.8701 189.602 57.1801 189.435 57.4534C189.275 57.7267 189.052 57.9434 188.765 58.1034C188.478 58.2567 188.152 58.3334 187.785 58.3334ZM187.965 57.2934C188.372 57.2934 188.698 57.1567 188.945 56.8834C189.198 56.6101 189.325 56.2601 189.325 55.8334C189.325 55.5467 189.268 55.2934 189.155 55.0734C189.042 54.8534 188.882 54.6834 188.675 54.5634C188.475 54.4367 188.238 54.3734 187.965 54.3734C187.698 54.3734 187.462 54.4367 187.255 54.5634C187.055 54.6834 186.895 54.8534 186.775 55.0734C186.662 55.2934 186.605 55.5467 186.605 55.8334C186.605 56.1201 186.662 56.3734 186.775 56.5934C186.895 56.8134 187.055 56.9867 187.255 57.1134C187.462 57.2334 187.698 57.2934 187.965 57.2934ZM189.255 58.2334V56.9434L189.445 55.7734L189.255 54.6134V53.4334H190.355V58.2334H189.255ZM194.866 58.2334V55.4634C194.866 55.1434 194.762 54.8801 194.556 54.6734C194.356 54.4667 194.096 54.3634 193.776 54.3634C193.562 54.3634 193.372 54.4101 193.206 54.5034C193.039 54.5967 192.909 54.7267 192.816 54.8934C192.722 55.0601 192.676 55.2501 192.676 55.4634L192.246 55.2234C192.246 54.8567 192.326 54.5334 192.486 54.2534C192.646 53.9667 192.866 53.7434 193.146 53.5834C193.432 53.4167 193.752 53.3334 194.106 53.3334C194.466 53.3334 194.786 53.4267 195.066 53.6134C195.346 53.7934 195.566 54.0301 195.726 54.3234C195.886 54.6101 195.966 54.9101 195.966 55.2234V58.2334H194.866ZM191.576 58.2334V53.4334H192.676V58.2334H191.576ZM197.094 58.2334V53.4334H198.194V58.2334H197.094ZM197.644 52.5534C197.457 52.5534 197.3 52.4901 197.174 52.3634C197.054 52.2367 196.994 52.0801 196.994 51.8934C196.994 51.7067 197.054 51.5501 197.174 51.4234C197.3 51.2967 197.457 51.2334 197.644 51.2334C197.837 51.2334 197.994 51.2967 198.114 51.4234C198.234 51.5501 198.294 51.7067 198.294 51.8934C198.294 52.0801 198.234 52.2367 198.114 52.3634C197.994 52.4901 197.837 52.5534 197.644 52.5534ZM201.627 58.3334C201.161 58.3334 200.737 58.2234 200.357 58.0034C199.977 57.7767 199.674 57.4734 199.447 57.0934C199.227 56.7134 199.117 56.2901 199.117 55.8234C199.117 55.3567 199.227 54.9367 199.447 54.5634C199.674 54.1901 199.977 53.8934 200.357 53.6734C200.737 53.4467 201.161 53.3334 201.627 53.3334C202.101 53.3334 202.527 53.4434 202.907 53.6634C203.287 53.8834 203.587 54.1834 203.807 54.5634C204.034 54.9367 204.147 55.3567 204.147 55.8234C204.147 56.2901 204.034 56.7134 203.807 57.0934C203.587 57.4734 203.287 57.7767 202.907 58.0034C202.527 58.2234 202.101 58.3334 201.627 58.3334ZM201.627 57.2734C201.901 57.2734 202.141 57.2134 202.347 57.0934C202.561 56.9667 202.724 56.7934 202.837 56.5734C202.957 56.3534 203.017 56.1034 203.017 55.8234C203.017 55.5434 202.957 55.2967 202.837 55.0834C202.717 54.8701 202.554 54.7034 202.347 54.5834C202.141 54.4567 201.901 54.3934 201.627 54.3934C201.361 54.3934 201.121 54.4567 200.907 54.5834C200.701 54.7034 200.537 54.8701 200.417 55.0834C200.304 55.2967 200.247 55.5434 200.247 55.8234C200.247 56.1034 200.304 56.3534 200.417 56.5734C200.537 56.7934 200.701 56.9667 200.907 57.0934C201.121 57.2134 201.361 57.2734 201.627 57.2734ZM208.352 58.2334V55.4634C208.352 55.1434 208.249 54.8801 208.042 54.6734C207.842 54.4667 207.582 54.3634 207.262 54.3634C207.049 54.3634 206.859 54.4101 206.692 54.5034C206.525 54.5967 206.395 54.7267 206.302 54.8934C206.209 55.0601 206.162 55.2501 206.162 55.4634L205.732 55.2234C205.732 54.8567 205.812 54.5334 205.972 54.2534C206.132 53.9667 206.352 53.7434 206.632 53.5834C206.919 53.4167 207.239 53.3334 207.592 53.3334C207.952 53.3334 208.272 53.4267 208.552 53.6134C208.832 53.7934 209.052 54.0301 209.212 54.3234C209.372 54.6101 209.452 54.9101 209.452 55.2234V58.2334H208.352ZM205.062 58.2334V53.4334H206.162V58.2334H205.062Z" fill="#D776D6"/>
<defs>
<linearGradient id="paint0_linear_420_7" x1="55.1298" y1="32.5718" x2="4.24988" y2="24.9233" gradientUnits="userSpaceOnUse">
<stop stop-color="#DA7CDE"/>
<stop offset="1" stop-color="#681E65"/>
</linearGradient>
<linearGradient id="paint1_linear_420_7" x1="57.8875" y1="4.97378" x2="9.52665" y2="59.6574" gradientUnits="userSpaceOnUse">
<stop stop-color="#F498F4"/>
<stop offset="0.281679" stop-color="#571D57"/>
<stop offset="0.542578" stop-color="#5F245F"/>
<stop offset="0.80316" stop-color="#B428B4"/>
<stop offset="1" stop-color="#571D57"/>
</linearGradient>
</defs>
</svg>
